<?xml version="1.0" encoding="utf-8"?>
<COLLADA xmlns="http://www.collada.org/2005/11/COLLADASchema" version="1.4.1">
  <asset>
    <created>2019-02-14T03:09:42Z</created>
    <modified>2019-02-14T03:09:42Z</modified>
  </asset>
  <library_images>
    <image id="Image">
      <init_from>file:///img1.png</init_from>
    </image>
    <image id="Image1">
      <init_from>file:///img2.png</init_from>
    </image>
    <image id="Image2">
      <init_from>file:///img3.png</init_from>
    </image>
  </library_images>
  <library_materials>
    <material id="VisualMaterial" name="img1_png">
      <instance_effect url="#Effect"/>
      <extra>
        <technique profile="FCOLLADA">
          <user_properties>img1.png</user_properties>
        </technique>
      </extra>
    </material>
    <material id="VisualMaterial1" name="img2_png">
      <instance_effect url="#Effect1"/>
      <extra>
        <technique profile="FCOLLADA">
          <user_properties>img2.png</user_properties>
        </technique>
      </extra>
    </material>
    <material id="VisualMaterial2" name="img3_png">
      <instance_effect url="#Effect2"/>
      <extra>
        <technique profile="FCOLLADA">
          <user_properties>img3.png</user_properties>
        </technique>
      </extra>
    </material>
  </library_materials>
  <library_effects>
    <effect id="Effect" name="img1_png">
      <profile_COMMON>
        <newparam sid="Image-surface">
          <surface type="2D">
            <init_from>Image</init_from>
            <format>A8R8G8B8</format>
          </surface>
        </newparam>
        <newparam sid="Image-sampler">
          <sampler2D>
            <source>Image-surface</source>
            <wrap_s>WRAP</wrap_s>
            <wrap_t>WRAP</wrap_t>
            <minfilter>NONE</minfilter>
            <magfilter>NONE</magfilter>
            <mipfilter>NONE</mipfilter>
          </sampler2D>
        </newparam>
        <technique sid="common">
          <phong>
            <emission>
              <color>0 0 0 1</color>
            </emission>
            <ambient>
              <color>0 0 0 1</color>
            </ambient>
            <diffuse>
              <texture texture="Image-sampler" texcoord=""/>
            </diffuse>
            <specular>
              <color>1 1 1 1</color>
            </specular>
            <shininess>
              <float>0</float>
            </shininess>
            <transparent opaque="A_ONE">
              <color>0 0 0 1</color>
            </transparent>
            <transparency>
              <float>1</float>
            </transparency>
            <index_of_refraction>
              <float>1.55</float>
            </index_of_refraction>
          </phong>
          <extra>
            <technique profile="FCOLLADA">
              <spec_level>
                <float>0</float>
              </spec_level>
            </technique>
          </extra>
        </technique>
      </profile_COMMON>
      <extra>
        <technique profile="FCOLLADA">
          <user_properties>img1.png</user_properties>
        </technique>
      </extra>
    </effect>
    <effect id="Effect1" name="img2_png">
      <profile_COMMON>
        <newparam sid="Image1-surface">
          <surface type="2D">
            <init_from>Image1</init_from>
            <format>A8R8G8B8</format>
          </surface>
        </newparam>
        <newparam sid="Image1-sampler">
          <sampler2D>
            <source>Image1-surface</source>
            <wrap_s>WRAP</wrap_s>
            <wrap_t>WRAP</wrap_t>
            <minfilter>NONE</minfilter>
            <magfilter>NONE</magfilter>
            <mipfilter>NONE</mipfilter>
          </sampler2D>
        </newparam>
        <technique sid="common">
          <phong>
            <emission>
              <color>0 0 0 1</color>
            </emission>
            <ambient>
              <color>0 0 0 1</color>
            </ambient>
            <diffuse>
              <texture texture="Image1-sampler" texcoord=""/>
            </diffuse>
            <specular>
              <color>1 1 1 1</color>
            </specular>
            <shininess>
              <float>0</float>
            </shininess>
            <transparent opaque="A_ONE">
              <color>0 0 0 1</color>
            </transparent>
            <transparency>
              <float>1</float>
            </transparency>
            <index_of_refraction>
              <float>1.55</float>
            </index_of_refraction>
          </phong>
          <extra>
            <technique profile="FCOLLADA">
              <spec_level>
                <float>0</float>
              </spec_level>
            </technique>
          </extra>
        </technique>
      </profile_COMMON>
      <extra>
        <technique profile="FCOLLADA">
          <user_properties>img2.png</user_properties>
        </technique>
      </extra>
    </effect>
    <effect id="Effect2" name="img3_png">
      <profile_COMMON>
        <newparam sid="Image2-surface">
          <surface type="2D">
            <init_from>Image2</init_from>
            <format>A8R8G8B8</format>
          </surface>
        </newparam>
        <newparam sid="Image2-sampler">
          <sampler2D>
            <source>Image2-surface</source>
            <wrap_s>WRAP</wrap_s>
            <wrap_t>WRAP</wrap_t>
            <minfilter>NONE</minfilter>
            <magfilter>NONE</magfilter>
            <mipfilter>NONE</mipfilter>
          </sampler2D>
        </newparam>
        <technique sid="common">
          <phong>
            <emission>
              <color>0 0 0 1</color>
            </emission>
            <ambient>
              <color>0 0 0 1</color>
            </ambient>
            <diffuse>
              <texture texture="Image2-sampler" texcoord=""/>
            </diffuse>
            <specular>
              <color>1 1 1 1</color>
            </specular>
            <shininess>
              <float>0</float>
            </shininess>
            <transparent opaque="A_ONE">
              <color>0 0 0 1</color>
            </transparent>
            <transparency>
              <float>1</float>
            </transparency>
            <index_of_refraction>
              <float>1.55</float>
            </index_of_refraction>
          </phong>
          <extra>
            <technique profile="FCOLLADA">
              <spec_level>
                <float>0</float>
              </spec_level>
            </technique>
          </extra>
        </technique>
      </profile_COMMON>
      <extra>
        <technique profile="FCOLLADA">
          <user_properties>img3.png</user_properties>
        </technique>
      </extra>
    </effect>
  </library_effects>
  <library_geometries>
    <geometry id="Geometry" name="unnamed_mtl_0002">
      <mesh>
        <source id="GeometrySource" name="unnamed_mtl_0002Pos">
          <float_array id="GeometrySource-array" count="978">-0.00683 12.5746 1.66345 -0.51568 12.0691 4.86205 -0.549831 12.3492 4.95201 -0.00683 12.5746 1.66345 0.549831 12.3492 4.95201 0.51568 12.0691 4.86205 0.000000 15.3104 2.6498 1.99783 13.486 2.16458 0.000000 14.2119 1.97004 -1.54021 13.3003 1.07522 0.000000 13.1008 0.572229 -1.05185 13.0808 0.775612 0.000000 13.6693 0.820045 -1.54021 11.9534 3.94239 -2.0593 13.3242 2.49427 -1.47874 11.833 3.93369 0.717171 11.6957 4.61428 0.273208 11.9583 4.74655 0.242472 11.7434 4.80609 -1.99783 13.486 2.16458 0.000000 15.5442 4.6704 1.47191 13.2891 3.7052 1.40019 15.1538 3.73913 0.000000 13.7478 4.63511 -1.47191 13.2891 3.7052 -1.40019 15.1538 3.73913 -1.62217 12.9047 2.51676 -1.47191 13.2891 3.7052 -1.40019 15.1538 3.73913 1.54021 13.3003 1.07522 1.62217 12.9047 2.51676 0.000000 12.3249 1.07838 0.000000 12.0029 1.46721 -1.10308 12.4644 1.80124 1.10308 12.4644 1.80124 1.05185 13.0808 0.775612 0.000000 12.9274 4.94582 -0.00683 12.5746 1.66345 -0.310774 12.731 4.97667 0.549831 12.3492 4.95201 0.310774 12.731 4.97667 0.000000 15.808 3.64546 0.000000 14.5861 2.96405 1.56411 13.1204 5.06241 1.84415 13.1047 2.83142 0.000000 13.3652 6.01755 -1.55728 13.1204 5.06241 -1.85781 13.1047 2.83142 0.000000 15.5442 4.6704 1.40019 15.1538 3.73913 1.47191 13.2891 3.7052 0.000000 15.3104 2.6498 -0.00683 12.5746 1.66345 0.000000 12.9274 4.94582 -0.549831 12.3492 4.95201 0.000000 13.8577 1.89895 0.000000 13.8577 1.89895 1.56411 13.1204 5.06241 0.000000 13.3652 6.01755 0.51568 12.0691 4.86205 -0.00683 12.5746 1.66345 -0.307359 11.9317 5.63851 -0.310774 12.731 4.97667 -0.239057 12.1963 5.70217 0.307359 11.9317 5.63851 0.51568 12.0691 4.86205 -0.51568 12.0691 4.86205 -0.307359 11.9317 5.63851 -0.198076 11.8006 5.57578 0.198076 11.8006 5.57578 -0.198076 11.8006 5.57578 -0.239057 12.1963 5.70217 0.000000 12.9274 4.94582 -0.310774 12.731 4.97667 0.000000 12.4565 5.65316 0.310774 12.731 4.97667 0.239057 12.1963 5.70217 0.000000 11.5936 6.04215 0.000000 11.5936 6.04215 -0.307359 11.9317 5.63851 -0.198076 11.8006 5.57578 0.000000 11.5936 6.04215 0.198076 11.8006 5.57578 -0.239057 12.1963 5.70217 -0.307359 11.9317 5.63851 0.239057 12.1963 5.70217 0.307359 11.9317 5.63851 -0.273208 11.9583 4.74655 -0.71717 11.6957 4.61428 -0.242472 11.7434 4.80609 1.55387 11.9534 3.94239 2.12419 13.3242 2.49427 1.40019 12.0673 3.95497 -1.3353 11.7423 4.20364 -0.758152 11.9097 4.54112 -1.25334 11.836 4.22105 1.3353 11.7423 4.20364 0.717171 11.6957 4.61428 1.28749 11.6316 4.18741 -1.3353 11.7423 4.20364 -1.38653 12.0673 3.95497 1.4924 11.833 3.93369 1.3353 11.7423 4.20364 -1.28749 11.6316 4.18741 -1.28749 11.6316 4.18741 1.25334 11.836 4.22105 0.758152 11.9097 4.54112 1.25334 11.836 4.22105 -0.758152 11.9097 4.54112 0.198076 11.8006 5.57578 0.239057 12.1963 5.70217 -2.29204 -0.013421 1.74376 -4.24546 1.57615 2.67066 -3.78583 0.385835 1.95154 -4.17977 1.19582 0.888469 -3.06398 -0.008643 -1.61492 -4.29603 -0.029147 0.569706 -3.09887 1.57835 -1.11842 -1.45235 0.020891 -1.8639 -1.67959 1.58295 -1.53708 -1.41156 1.59162 -0.133479 -0.964419 0.007745 -0.374579 -2.64812 1.20793 1.77449 -4.17977 1.19582 0.888469 -0.964419 0.007745 -0.374579 -4.29603 -0.029147 0.569706 -3.78583 0.385835 1.95154 -3.34911 1.13345 0.919046 -2.70383 4.69429 2.28243 -3.78049 4.4758 2.39768 -1.66404 1.37304 0.878639 -2.67797 5.12627 1.3785 -1.50484 2.24153 -0.776337 -3.66491 4.9864 1.42819 -3.38216 1.91605 -0.636674 -3.47741 5.35751 2.33315 -2.43104 0.886248 -0.250664 -3.57688 5.48818 2.15412 -0.47576 6.75355 0.69381 -1.38901 7.44112 0.303195 -2.77623 4.83139 2.44362 -0.559493 5.87771 -0.262561 -2.84234 4.11362 1.65656 -1.43684 6.66802 -0.541702 -3.60215 4.76148 1.3748 -3.69574 4.37822 2.32125 -0.502488 7.12433 -0.405153 4.29888 1.589 2.68452 2.34838 -0.009806 1.77178 3.84562 0.394858 1.96147 4.34269 -0.037212 0.555842 4.22352 1.19092 0.864117 3.13885 1.55348 -1.1002 3.10866 -0.038453 -1.57966 1.73301 1.55371 -1.52308 1.50691 -0.011553 -1.83895 3.13885 1.55348 -1.1002 2.70154 1.21183 1.79207 1.46526 1.57648 -0.079809 1.01812 -0.009725 -0.30506 2.34838 -0.009806 1.77178 3.8018 4.49078 2.4247 1.68534 1.37299 0.936756 3.37042 1.13382 0.979558 2.72513 4.70811 2.30726 1.52615 2.22488 -0.726821 2.69927 5.13103 1.39906 3.40595 1.90148 -0.586154 3.68621 4.99167 1.45015 3.49872 5.37181 2.35135 2.44986 0.874272 -0.185378 1.39534 7.44382 0.287392 2.78257 4.85562 2.45381 3.58321 5.50949 2.15775 0.482092 6.76019 0.684862 2.84867 4.13002 1.67397 0.565827 5.87483 -0.262703 3.60848 4.77503 1.38574 1.44318 6.6623 -0.549732 3.69996 4.4015 2.33865 0.510931 7.11972 -0.420427 -3.48606 9.61458 1.08496 -4.06848 9.65864 0.522223 -4.42285 9.99411 1.1372 -5.51465 7.21019 3.05625 -4.78557 9.27314 0.526706 -5.1206 8.1816 3.82235 -4.78557 9.27314 0.526706 -5.1206 8.1816 3.82235 -3.48606 9.61458 1.08496 -3.92337 7.63439 3.72993 -3.90217 9.001 0.532796 -4.33552 6.69875 2.94738 -3.90217 9.001 0.532796 -4.5013 8.26591 2.42507 -4.19821 6.80516 2.62122 -5.73049 7.42575 2.72877 -5.98841 6.79414 3.56817 -4.38988 6.0391 3.53565 -4.99132 6.75238 4.48916 -3.50475 8.01653 3.67522 -3.69795 7.41342 4.52378 -4.06848 9.65864 0.522223 -4.78557 9.27314 0.526706 -4.33552 6.69875 2.94738 -3.90217 9.001 0.532796 -1.78335 9.74145 2.55346 -1.25038 10.3343 2.21443 -2.00312 10.7404 2.19684 -1.35591 10.4721 1.36596 -3.91935 9.84665 0.075331 -4.46312 10.1035 0.930881 -4.34583 9.11766 1.26003 -1.42072 9.81745 1.825 -3.88631 9.03217 0.479469 -4.54371 9.36257 0.361336 4.06848 9.65864 0.522223 3.48606 9.61458 1.08496 4.42285 9.99411 1.1372 4.78557 9.27314 0.526706 5.1206 8.1816 3.82235 5.51465 7.21019 3.05625 4.42285 9.99411 1.1372 4.78557 9.27314 0.526706 3.92337 7.63439 3.72993 5.1206 8.1816 3.82235 4.33552 6.69875 2.94738 3.92337 7.63439 3.72993 3.90217 9.001 0.532796 3.48606 9.61458 1.08496 4.19821 6.80516 2.62122 4.5013 8.26591 2.42507 5.73049 7.42575 2.72877 4.38988 6.0391 3.53565 5.98841 6.79414 3.56817 4.99132 6.75238 4.48916 4.19821 6.80516 2.62122 3.69795 7.41342 4.52378 3.50475 8.01653 3.67522 4.38988 6.0391 3.53565 4.5013 8.26591 2.42507 4.19821 6.80516 2.62122 5.51465 7.21019 3.05625 4.38988 6.0391 3.53565 3.69795 7.41342 4.52378 5.98841 6.79414 3.56817 1.25038 10.3343 2.21443 1.78335 9.74145 2.55346 2.00312 10.7404 2.19684 1.35591 10.4721 1.36596 4.46312 10.1035 0.930881 3.9178 9.84385 0.07416 4.34583 9.11766 1.26003 3.88631 9.03217 0.479469 1.42072 9.81745 1.825 4.54257 9.3993 0.434037 0 5.94205 -0.432425 1.64608 6.16315 0.15037 0 6.16274 0.883503 0 6.16274 0.883503 1.52313 7.71593 0.869713 0 7.40004 1.51737 1.64608 6.16315 0.15037 1.85098 8.85862 1.8222 0 7.40004 1.51737 1.52313 7.71593 0.869713 0 5.94205 -0.432425 1.36945 6.79091 -0.622552 1.64608 6.16315 0.15037 1.26359 8.25839 -0.343773 1.52313 7.71593 0.869713 1.36945 6.79091 -0.622552 0 8.61995 -0.851365 1.55045 9.64841 0.288588 1.26359 8.25839 -0.343773 0 9.99102 -0.281439 0 6.34307 -0.810582 1.36945 6.79091 -0.622552 0 5.94205 -0.432425 0 8.61995 -0.851365 1.26359 8.25839 -0.343773 0 7.09753 -0.970758 -1.62217 6.16315 0.15037 -1.36945 6.79091 -0.622552 -1.52313 7.71593 0.869713 -1.36945 6.79091 -0.622552 -1.62217 6.16315 0.15037 -1.26359 8.25839 -0.343773 -1.76219 10.183 2.30095 0 9.81618 3.05297 0 11.4291 2.90113 -1.62217 6.16315 0.15037 0 6.16274 0.883503 -1.52313 7.71593 0.869713 1.76219 10.183 2.30095 1.43776 10.8878 1.29205 -1.52313 7.71593 0.869713 -1.55045 9.64841 0.288588 -1.26359 8.25839 -0.343773 -1.85098 8.85862 1.8222 0 6.34307 -0.810582 -1.36945 6.79091 -0.622552 0 7.09753 -0.970758 0 7.09753 -0.970758 -1.26359 8.25839 -0.343773 -1.36945 6.79091 -0.622552 -1.43776 10.8878 1.29205 0 11.283 0.785658 -1.26359 8.25839 -0.343773 -1.55045 9.64841 0.288588 1.76219 10.183 2.30095 1.55045 9.64841 0.288588 1.43776 10.8878 1.29205 1.85098 8.85862 1.8222 0 8.4544 2.65096 0 9.81618 3.05297 -1.76219 10.183 2.30095 -1.85098 8.85862 1.8222 -1.52313 7.71593 0.869713 -1.43776 10.8878 1.29205 0 11.283 0.785658 -1.43776 10.8878 1.29205 1.43776 10.8878 1.29205 1.26359 8.25839 -0.343773 1.52313 7.71593 0.869713 0 5.94205 -0.432425</float_array>
          <technique_common>
            <accessor source="#GeometrySource-array" count="326" stride="3">
              <param name="X" type="float"/>
              <param name="Y" type="float"/>
              <param name="Z" type="float"/>
            </accessor>
          </technique_common>
        </source>
        <source id="GeometrySource1" name="unnamed_mtl_0002Nrm">
          <float_array id="GeometrySource1-array" count="978">-0.000506 0.878549 -0.477651 -0.572735 -0.805192 -0.153756 -0.971928 0.195213 0.131331 -0.000506 0.878549 -0.477651 0.972102 0.195659 0.129368 0.68411 -0.723168 -0.094986 0 0.75107 -0.660223 0.826335 0.38511 -0.410928 0.061597 0.794802 -0.603735 -0.710154 0.020743 -0.703741 -0.050749 0.085649 -0.995032 -0.415894 -0.502516 -0.757964 -0.025126 0.731343 -0.681547 -0.87153 -0.064304 0.486108 -0.915268 0.0721 0.396341 -0.884478 -0.45793 0.089431 0.479506 0.066472 0.875018 0.391711 0.21119 0.895523 0.3842 0.195018 0.902418 -0.837758 0.415935 -0.353779 0 0.417778 0.908549 0.788502 -0.003123 0.615025 0.842304 0.509903 0.174708 -0.000000 0.055139 0.998479 -0.802287 -0.079807 0.591579 -0.750872 0.649741 0.118437 -0.941073 -0.33723 -0.025656 -0.802287 -0.079807 0.591579 -0.750872 0.649741 0.118437 0.780201 0.101468 -0.617244 0.963143 -0.265876 -0.040811 0.112572 -0.697533 -0.707655 -0.01613 -0.556112 -0.830951 -0.643767 -0.445008 -0.62252 0.61532 -0.562323 -0.552425 0.400415 -0.272182 -0.874977 -0.145733 0.934176 0.325695 -0.000506 0.878549 -0.477651 -0.763229 0.596014 0.249499 0.972102 0.195659 0.129368 0.738176 0.610792 0.286408 0 0.994502 -0.104719 0.000437 0.968393 0.249427 0.729464 -0.472354 0.494736 0.856776 -0.503584 0.111076 -0.000825 -0.388884 0.921286 -0.729024 -0.470226 0.497405 -0.857296 -0.500882 0.118996 0 0.417778 0.908549 0.842304 0.509903 0.174708 0.788502 -0.003123 0.615025 0 0.75107 -0.660223 -0.000506 0.878549 -0.477651 -0.145733 0.934176 0.325695 -0.971928 0.195213 0.131331 -0.000691 -0.99665 -0.081779 -0.000691 -0.99665 -0.081779 0.729464 -0.472354 0.494736 -0.000825 -0.388884 0.921286 0.68411 -0.723168 -0.094986 -0.000506 0.878549 -0.477651 -0.931986 -0.157491 0.326496 -0.763229 0.596014 0.249499 -0.660966 0.442397 0.606142 0.931986 -0.157491 0.326496 0.68411 -0.723168 -0.094986 -0.572735 -0.805192 -0.153756 -0.931986 -0.157491 0.326496 -0.422844 -0.888144 -0.180012 0.336216 -0.915297 -0.221788 -0.422844 -0.888144 -0.180012 -0.660966 0.442397 0.606142 -0.145733 0.934176 0.325695 -0.763229 0.596014 0.249499 0.088927 0.657425 0.748254 0.738176 0.610792 0.286408 0.701846 0.346986 0.622103 -0.000000 -0.441143 0.897437 -0.000000 -0.441143 0.897437 -0.931986 -0.157491 0.326496 -0.422844 -0.888144 -0.180012 -0.000000 -0.441143 0.897437 0.336216 -0.915297 -0.221788 -0.660966 0.442397 0.606142 -0.931986 -0.157491 0.326496 0.701846 0.346986 0.622103 0.931986 -0.157491 0.326496 -0.391711 0.211191 0.895523 -0.479506 0.066472 0.875017 -0.384201 0.19502 0.902417 0.789981 0.131732 0.598813 0.905956 0.065021 0.418349 0.457732 0.539794 0.706473 -0.645211 0.123611 0.753938 -0.496134 0.248823 0.831828 -0.582777 0.376076 0.720373 0.710455 -0.063081 0.70091 0.479506 0.066472 0.875018 0.713538 -0.393216 0.579866 -0.645211 0.123611 0.753938 -0.508248 0.493061 0.706098 0.870876 -0.445884 0.206789 0.710455 -0.063081 0.70091 -0.772334 -0.419362 0.477112 -0.772334 -0.419362 0.477112 0.522633 0.408453 0.748346 0.496133 0.248822 0.831829 0.522633 0.408453 0.748346 -0.496134 0.248823 0.831828 0.336216 -0.915297 -0.221788 0.701846 0.346986 0.622103 0.464577 -0.46565 0.753219 -0.512744 0.067245 0.855904 -0.345054 -0.724568 0.596607 -0.718812 0.636264 -0.280139 -0.62206 -0.461033 -0.632842 -0.657324 -0.751585 0.055191 -0.342862 0.811266 -0.473597 0.52137 -0.025012 -0.852964 0.361875 0.70987 -0.604261 0.758094 0.63099 0.164759 0.57207 -0.817433 0.06738 0.324047 0.861743 0.390375 -0.718812 0.636264 -0.280139 0.57207 -0.817433 0.06738 -0.657324 -0.751585 0.055191 -0.345054 -0.724568 0.596607 -0.371452 -0.758384 0.535608 0.501232 0.059891 0.863238 -0.826255 -0.041495 0.561766 0.824478 -0.415316 0.384381 0.643079 0.754502 -0.131059 0.473365 0.121632 -0.872429 -0.603118 0.600226 -0.525336 -0.762974 -0.176311 -0.621921 -0.162004 0.871441 0.462975 0.090736 -0.903174 -0.419575 -0.51551 0.576532 0.633924 0.691399 0.38556 0.610991 -0.353775 0.927288 -0.122395 0.450201 -0.273421 0.850035 0.771478 -0.555149 -0.310856 0.0175 -0.960558 -0.277528 -0.333388 -0.011467 -0.94272 -0.846698 -0.07543 -0.5267 -0.650158 -0.548732 0.525536 0.594896 0.563796 -0.572915 0.522587 0.071375 0.849593 -0.265744 -0.73777 0.620544 0.354444 -0.722193 0.593975 0.875008 -0.481069 -0.054167 0.507853 0.853042 -0.120018 0.559122 0.687192 -0.463843 0.347786 -0.668584 -0.657298 -0.422975 0.570109 -0.70432 -0.485851 -0.388377 -0.783015 0.559122 0.687192 -0.463843 -0.572293 0.654288 0.494356 -0.410048 0.896794 0.166195 -0.939027 -0.302407 0.163639 -0.265744 -0.73777 0.620544 0.495355 -0.124988 0.859652 -0.578566 -0.565567 0.587704 0.720556 -0.656345 0.223631 -0.709491 0.230618 0.665912 -0.835506 0.015997 -0.549248 -0.32531 0.842171 -0.430026 0.542479 -0.021796 -0.839787 0.835734 0.431062 -0.340198 0.162004 0.876027 0.454238 -0.092112 -0.907732 -0.409314 0.074628 0.968414 0.237918 -0.290013 0.033364 0.956441 0.790511 0.550454 0.268501 -0.857039 0.095242 0.506372 -0.314511 -0.943531 0.104074 -0.466617 -0.571632 -0.674911 0.703684 -0.349005 -0.61889 0.478723 0.253342 -0.84062 0.649075 -0.543347 0.532425 -0.593838 0.557894 -0.579751 0.784577 0.620026 0.00267 0.206317 0.545783 -0.81213 -0.444097 0.893529 -0.066211 -0.966261 0.044221 -0.253739 -0.538842 -0.079422 -0.838654 -0.102881 0.833062 0.543529 -0.538842 -0.079422 -0.838654 -0.102881 0.833062 0.543529 0.784577 0.620026 0.00267 0.991373 -0.014765 0.130235 0.610943 -0.340106 -0.714896 0.169482 -0.739951 -0.65096 0.610943 -0.340106 -0.714896 0.147254 0.592539 -0.791968 0.245393 -0.510565 -0.824079 -0.80387 0.218314 -0.553292 -0.805481 -0.591746 -0.032202 0.427154 -0.902043 0.06211 -0.236122 -0.487181 0.840774 0.949004 0.302533 -0.088687 0.51473 0.160782 0.842142 0.206317 0.545783 -0.81213 -0.538842 -0.079422 -0.838654 0.169482 -0.739951 -0.65096 0.610943 -0.340106 -0.714896 0.073068 -0.229718 0.970511 0.880287 0.192365 0.433695 0.008532 0.942686 0.333571 0.767737 0.229532 -0.598243 -0.106554 0.469615 -0.876418 -0.789627 0.537274 0.296353 -0.453486 -0.820169 0.348817 0.647636 -0.759504 -0.061006 0.180637 -0.799548 -0.572795 -0.786434 -0.328213 -0.523257 -0.206317 0.545783 -0.81213 -0.92943 0.305851 -0.206432 0.068662 0.992869 0.097453 0.726319 0.220042 -0.651185 0.667806 0.682136 0.297868 0.670326 -0.454134 -0.586877 0.068662 0.992869 0.097453 0.726319 0.220042 -0.651185 -0.724967 0.492928 0.481087 0.667806 0.682136 0.297868 -0.65598 -0.612147 -0.44155 -0.724967 0.492928 0.481087 -0.269579 -0.429772 -0.861756 -0.92943 0.305851 -0.206432 -0.592767 -0.433821 -0.678547 -0.147254 0.592539 -0.791968 0.650433 -0.112719 -0.751153 -0.05468 -0.993483 -0.100009 0.957518 -0.226588 0.178374 0.236122 -0.487182 0.840774 -0.592767 -0.433821 -0.678547 -0.734822 -0.211394 0.644476 -0.749931 0.651908 0.112337 -0.05468 -0.993483 -0.100009 -0.147254 0.592539 -0.791968 -0.592767 -0.433821 -0.678547 0.670326 -0.454134 -0.586877 -0.05468 -0.993483 -0.100009 -0.734822 -0.211394 0.644476 0.957518 -0.226588 0.178374 -0.880287 0.192365 0.433695 -0.289529 -0.599936 0.745822 0.109459 0.738107 0.665745 -0.585849 0.659349 -0.471211 0.664929 0.744855 -0.05532 -0.028342 0.024564 -0.999296 0.68641 -0.439322 0.579515 -0.075511 -0.911831 -0.403563 -0.730516 -0.615731 -0.295334 0.811185 -0.307892 -0.497173 -0.000839 -0.889454 -0.457023 0.839348 -0.54344 -0.012933 0.10156 -0.743966 0.660455 0.10156 -0.743966 0.660455 0.803156 -0.345418 0.485414 -0.059323 -0.608021 0.791702 0.839348 -0.54344 -0.012933 0.835206 -0.344843 0.428386 -0.059323 -0.608021 0.791702 0.803156 -0.345418 0.485414 -0.000839 -0.889454 -0.457023 0.476179 -0.219692 -0.851463 0.839348 -0.54344 -0.012933 0.86953 0.108945 -0.481713 0.803156 -0.345418 0.485414 0.476179 -0.219692 -0.851463 0.121782 0.243963 -0.962108 0.781793 0.28295 -0.555644 0.86953 0.108945 -0.481713 -0.004414 0.512507 -0.858672 0 -0.460389 -0.887717 0.476179 -0.219692 -0.851463 -0.000839 -0.889454 -0.457023 0.121782 0.243963 -0.962108 0.86953 0.108945 -0.481713 -0.086436 -0.012824 -0.996175 -0.658058 -0.693391 0.293543 -0.631922 -0.222712 -0.742344 -0.972859 -0.190896 0.130785 -0.631922 -0.222712 -0.742344 -0.658058 -0.693391 0.293543 -0.644985 0.177207 -0.743365 -0.714048 0.105561 0.692092 0.098353 -0.137591 0.985594 0 0.835051 0.550173 -0.658058 -0.693391 0.293543 0.10156 -0.743966 0.660455 -0.972859 -0.190896 0.130785 0.860564 0.219747 0.459501 0.622419 0.719403 -0.308308 -0.972859 -0.190896 0.130785 -0.786511 0.287449 -0.546602 -0.644985 0.177207 -0.743365 -0.896127 -0.291748 0.334425 0 -0.460389 -0.887717 -0.631922 -0.222712 -0.742344 -0.086436 -0.012824 -0.996175 -0.086436 -0.012824 -0.996175 -0.644985 0.177207 -0.743365 -0.631922 -0.222712 -0.742344 -0.769683 0.612307 -0.180745 -0.090304 0.850776 -0.517712 -0.644985 0.177207 -0.743365 -0.786511 0.287449 -0.546602 0.860564 0.219747 0.459501 0.781793 0.28295 -0.555644 0.622419 0.719403 -0.308308 0.835206 -0.344843 0.428386 -0.097049 -0.482732 0.870375 0.098353 -0.137591 0.985594 -0.714048 0.105561 0.692092 -0.896127 -0.291748 0.334425 -0.972859 -0.190896 0.130785 -0.769683 0.612307 -0.180745 -0.090304 0.850776 -0.517712 -0.769683 0.612307 -0.180745 0.622419 0.719403 -0.308308 0.86953 0.108945 -0.481713 0.803156 -0.345418 0.485414 -0.000839 -0.889454 -0.457023</float_array>
          <technique_common>
            <accessor source="#GeometrySource1-array" count="326" stride="3">
              <param name="X" type="float"/>
              <param name="Y" type="float"/>
              <param name="Z" type="float"/>
            </accessor>
          </technique_common>
        </source>
        <source id="GeometrySource2" name="unnamed_mtl_0002UV">
          <float_array id="GeometrySource2-array" count="652">0.991211 -0.197754 0.991699 -0.19873 0.992676 -0.197754 0.991211 -0.198242 0.991699 -0.19873 0.992676 -0.197754 0.95 -0.940625 0.975 -0.96875 0.965625 -0.9625 0.95625 -0.953125 0.965625 -0.9625 0.965625 -0.96875 0.978125 -0.959375 0.932726 -0.634115 0.944444 -0.631944 0.899902 -0.641113 0.993056 -0.692708 0.989583 -0.623264 0.993056 -0.657986 0.965625 -0.95625 0.600852 -0.6875 0.879261 -1.07386 0.84233 -0.757102 0.602273 -1.02273 0.335227 -1.07244 0.37358 -0.758523 0.95 -0.9625 0.9625 -0.965625 0.959375 -0.940625 0.9625 -0.9625 0.965625 -0.946875 0.959375 -0.96875 0.95625 -0.959375 0.959375 -0.96875 0.96875 -0.959375 0.959375 -0.95625 0.992676 -0.197754 0.991699 -0.19873 0.992676 -0.197754 0.992676 -0.197754 0.992676 -0.197754 0.953125 -0.953125 0.946875 -0.946875 0.959375 -0.95 0.965625 -0.946875 0.971875 -0.946875 0.953125 -0.940625 0.9625 -0.95 0.953125 -0.953125 0.971875 -0.965625 0.9625 -0.9625 0.9625 -0.954687 0.992188 -0.197754 0.991699 -0.19873 0.991699 -0.19873 0.9625 -0.953125 0.95625 -0.95 0.95625 -0.9625 0.95625 -0.953125 0.991211 -0.197754 0.992676 -0.197754 0.992188 -0.198242 0.991699 -0.19873 0.992676 -0.197754 0.991211 -0.198242 0.991699 -0.19873 0.992676 -0.197754 0.991211 -0.198242 0.991211 -0.197754 0.991211 -0.198242 0.991699 -0.199707 0.922454 -0.203125 0.952546 -0.141204 0.916667 -0.138889 0.953125 -0.189815 0.990741 -0.137731 0.98669 -0.201968 0.953125 -0.246528 0.991211 -0.198242 0.991699 -0.19873 0.992676 -0.197754 0.991699 -0.19873 0.992676 -0.197754 0.991699 -0.19873 0.992676 -0.197754 0.992188 -0.197754 0.992676 -0.197754 0.993056 -0.657986 0.90918 -0.69043 0.993056 -0.692708 0.932726 -0.659505 0.944444 -0.665799 0.899902 -0.641113 0.991319 -0.657118 0.90918 -0.623535 0.991319 -0.623264 0.991319 -0.657118 0.90918 -0.69043 0.991319 -0.690972 0.967882 -0.644531 0.967882 -0.627604 0.967882 -0.678385 0.967882 -0.661458 0.944444 -0.665799 0.991319 -0.690972 0.944444 -0.631944 0.90918 -0.623535 0.991319 -0.623264 0.989583 -0.623264 0.993304 -0.198661 0.992676 -0.197754 0.955078 -0.05371 0.955566 -0.051269 0.956055 -0.051757 0.95625 -0.05625 0.956055 -0.051757 0.958008 -0.050781 0.955566 -0.046875 0.957031 -0.048828 0.958984 -0.052734 0.958496 -0.054199 0.956055 -0.049804 0.958496 -0.052734 0.956055 -0.051757 0.955078 -0.05371 0.956055 -0.051757 0.958984 -0.054687 0.63125 -0.475 0.625 -0.475 0.625 -0.478125 0.625 -0.475 0.625 -0.48125 0.63125 -0.475 0.628125 -0.48125 0.625 -0.48125 0.625 -0.478125 0.63125 -0.48125 0.609375 -0.45 0.609375 -0.446875 0.603125 -0.453125 0.609375 -0.446875 0.609375 -0.4375 0.609375 -0.45 0.596875 -0.453125 0.603125 -0.44375 0.6 -0.446875 0.60625 -0.446875 0.945801 -0.054199 0.950684 -0.056152 0.947754 -0.057128 0.95 -0.05625 0.95166 -0.05664 0.946289 -0.052734 0.945801 -0.054199 0.946875 -0.059375 0.946289 -0.052734 0.945801 -0.057617 0.949219 -0.059082 0.947266 -0.05664 0.950684 -0.056152 0.947754 -0.057128 0.603125 -0.475 0.609375 -0.471875 0.603125 -0.465625 0.603125 -0.471875 0.603125 -0.465625 0.60625 -0.471875 0.60625 -0.46875 0.6 -0.471875 0.6 -0.471875 0.6 -0.48125 0.60625 -0.434375 0.6125 -0.45 0.596875 -0.440625 0.603125 -0.440625 0.596875 -0.440625 0.60625 -0.434375 0.60625 -0.4375 0.60625 -0.440625 0.596875 -0.453125 0.596875 -0.440625 0.821875 -0.209375 0.821875 -0.20625 0.821875 -0.2125 0.821875 -0.209375 0.821875 -0.20625 0.81875 -0.209375 0.821875 -0.209375 0.821875 -0.209375 0.821875 -0.20625 0.81875 -0.209375 0.821875 -0.20625 0.81875 -0.2125 0.81875 -0.209375 0.66875 -0.89375 0.671875 -0.896875 0.66875 -0.89375 0.665625 -0.8875 0.665625 -0.89375 0.66875 -0.896875 0.66875 -0.89375 0.665625 -0.8875 0.81875 -0.209375 0.81875 -0.209375 0.821875 -0.20625 0.81875 -0.2125 0.915625 -0.3125 0.915625 -0.315625 0.91875 -0.3125 0.915625 -0.3125 0.9125 -0.31875 0.915625 -0.31875 0.9125 -0.31875 0.915625 -0.309375 0.915625 -0.30625 0.91875 -0.31875 0.810268 -0.191964 0.810268 -0.191964 0.8125 -0.194196 0.810268 -0.191964 0.810268 -0.191964 0.8125 -0.194196 0.810268 -0.191964 0.8125 -0.194196 0.810268 -0.191964 0.8125 -0.194196 0.810268 -0.191964 0.8125 -0.194196 0.810268 -0.191964 0.8125 -0.194196 0.667411 -0.892857 0.665179 -0.901786 0.667411 -0.901786 0.669643 -0.895089 0.665179 -0.901786 0.667411 -0.892857 0.669643 -0.895089 0.665179 -0.901786 0.667411 -0.892857 0.667411 -0.901786 0.669643 -0.895089 0.665179 -0.901786 0.810268 -0.191964 0.665179 -0.901786 0.669643 -0.895089 0.669643 -0.895089 0.88125 -0.3125 0.884375 -0.309375 0.890625 -0.31875 0.884375 -0.309375 0.8875 -0.31875 0.884375 -0.315625 0.884375 -0.315625 0.8875 -0.30625 0.884375 -0.315625 0.884375 -0.315625 0.469664 -0.451745 0.46875 -0.465625 0.469664 -0.456212 0.46875 -0.465625 0.467167 -0.465693 0.469569 -0.465625 0.467215 -0.452718 0.018183 -0.300443 0.478125 -0.591346 0.008241 -0.591511 0.471439 -0.45358 0.46875 -0.465625 0.47188 -0.458995 0.471289 -0.468039 0.4719 -0.468039 0.471323 -0.455753 0.515625 -0.623438 0.854688 -0.31875 0.88125 -0.620313 0.504687 -0.325 0.469275 -0.459651 0.471294 -0.458995 0.469799 -0.453676 0.469799 -0.468039 0.47128 -0.468039 0.4698 -0.455615 0.46875 -0.465625 0.471323 -0.459064 0.47189 -0.468108 0.46875 -0.465625 0.47188 -0.455615 0.471291 -0.468177 0.26875 -0.925 0.0125 -0.946875 0.040625 -0.8 0.467544 -0.457063 0.469569 -0.451866 0.467157 -0.465625 0.26875 -0.925 0.240625 -0.628125 0.025151 -0.5867 0.008458 -0.285892 0.009765 -0.5625 0.026638 -0.298037 0.469537 -0.460652 0.471287 -0.458995 0.4698 -0.458995 0.46875 -0.465625 0.471289 -0.468039 0.471287 -0.455615 0.240625 -0.628125 0.065625 -0.63125 0.88125 -0.620313 0.854688 -0.31875 0.028125 -0.009374 0.009265 -0.285854 0.008766 -0.009207 0.026533 -0.297933 0.463021 -0.30609 0.447917 -0.020833 0.028125 -0.009374 0.018043 -0.300338 0.007962 -0.591302 0.00715 -0.009283 0.49375 -0.015625 0.828125 -0.00625 0.828125 -0.00625 0.009765 -0.5625 0.024942 -0.586491 0.46875 -0.465625</float_array>
          <technique_common>
            <accessor source="#GeometrySource2-array" count="326" stride="2">
              <param name="S" type="float"/>
              <param name="T" type="float"/>
            </accessor>
          </technique_common>
        </source>
        <vertices id="Geometry-vertices">
          <input semantic="POSITION" source="#GeometrySource"/>
          <input semantic="NORMAL" source="#GeometrySource1"/>
          <input semantic="TEXCOORD" source="#GeometrySource2"/>
        </vertices>
        <triangles material="VisualMaterial0" count="312">
          <input semantic="VERTEX" source="#Geometry-vertices" offset="0"/>
          <p>0 1 2 3 4 5 6 7 8 9 10 11 12 10 9 13 14 15 16 17 18 19 6 8 19 12 9 8 12 19 20 21 22 23 21 20 23 20 24 24 20 25 26 19 9 27 19 26 28 19 27 28 6 19 12 8 29 29 8 7 7 30 29 10 31 11 32 11 31 9 33 26 33 9 11 33 11 32 34 29 30 31 34 32 35 34 31 35 12 29 29 34 35 10 12 35 31 10 35 36 37 38 39 37 40 6 28 41 42 43 44 42 45 43 42 46 45 42 47 46 48 41 28 49 41 48 49 6 41 49 30 7 50 30 49 51 49 7 52 53 40 52 54 38 43 55 44 55 46 47 46 55 45 56 57 58 59 1 60 61 62 2 62 61 63 40 64 4 64 65 39 66 67 54 67 66 68 69 1 5 70 1 69 71 72 73 74 72 71 74 75 72 76 75 74 77 76 74 71 77 74 78 79 80 69 81 80 64 81 82 78 83 84 85 81 86 87 88 89 90 91 92 93 88 94 93 94 95 96 97 98 13 99 100 100 99 95 14 13 100 101 102 98 91 90 101 90 102 101 99 13 103 103 13 15 88 93 104 105 90 92 102 90 105 17 16 106 97 96 106 106 96 107 88 87 108 65 64 109 64 40 110 111 112 113 114 115 116 117 115 114 115 117 118 118 117 119 119 120 118 117 120 119 120 111 121 122 111 120 112 111 122 120 117 122 122 123 112 122 117 123 118 120 124 125 112 114 112 125 126 127 128 129 130 128 127 128 130 131 131 130 132 132 133 131 127 129 134 134 129 133 134 133 132 133 135 131 128 135 129 135 133 129 135 128 131 132 136 134 127 136 130 136 132 130 136 127 134 137 138 139 140 138 137 138 140 141 141 140 142 142 143 141 144 139 143 144 143 142 137 139 144 142 145 144 145 140 137 140 145 142 145 137 144 146 141 143 146 139 138 141 146 138 139 146 143 147 148 149 150 147 149 147 150 151 150 152 151 153 152 150 154 153 155 156 153 154 151 157 147 148 147 157 158 152 154 152 158 151 151 158 157 158 154 159 159 154 155 159 157 158 160 157 159 161 162 163 164 162 161 162 164 165 165 164 166 166 167 165 161 163 168 168 167 166 168 163 167 169 164 161 164 169 166 169 168 166 168 169 161 170 165 167 165 170 162 170 163 162 163 170 167 171 172 173 174 172 171 172 174 175 175 174 176 176 177 175 178 173 177 178 177 176 171 173 178 173 179 177 179 172 175 172 179 173 179 175 177 176 180 178 171 180 174 180 171 178 180 176 174 181 182 183 184 183 185 186 183 184 183 182 187 188 189 183 190 189 188 190 191 181 192 191 190 193 182 181 194 195 196 195 197 196 198 197 195 197 198 199 200 198 195 195 194 200 198 201 199 201 198 200 202 191 187 203 204 184 205 204 203 206 207 208 208 207 209 210 208 209 211 208 210 211 206 208 212 206 211 213 207 206 212 213 206 207 213 209 214 213 212 209 214 210 213 214 209 214 215 210 211 215 212 215 211 210 215 214 212 216 217 218 219 220 221 222 220 219 216 222 223 217 224 222 222 224 225 217 226 227 228 216 223 228 226 217 216 228 229 230 231 232 233 234 235 236 237 238 239 237 236 240 241 238 226 228 242 242 228 223 232 243 230 244 243 235 245 243 232 246 247 248 246 248 249 248 250 249 249 250 251 248 252 250 247 252 248 247 253 252 253 254 251 254 253 247 254 246 249 246 254 247 251 254 249 255 250 252 255 253 251 253 255 252 250 255 251 256 257 258 259 260 261 262 260 259 263 264 265 266 267 268 257 269 270 271 269 257 272 273 274 275 273 272 276 277 278 267 279 280 281 279 267 266 282 283 284 285 286 287 285 284 288 289 290 256 259 291 261 282 292 293 282 261 289 294 290 294 295 290 296 297 298 299 297 296 300 301 302 277 276 303 279 303 304 304 303 305 306 288 290 307 306 290 295 307 290 308 275 272 309 275 308 310 311 312 313 311 310 264 263 314 314 263 315 315 263 310 316 314 315 317 314 316 317 264 314 264 317 318 297 299 319 319 299 316 275 309 320 320 309 321 322 275 320 273 275 322 311 313 323 323 313 324 301 300 325</p>
        </triangles>
      </mesh>
    </geometry>
    <geometry id="Geometry1" name="unnamed_mtl_0003">
      <mesh>
        <source id="GeometrySource3" name="unnamed_mtl_0003Pos">
          <float_array id="GeometrySource3-array" count="360">-1.21919 11.4101 1.31352 -0.990378 10.9872 2.31535 -1.26359 11.5703 2.42863 -0.389321 11.4472 2.04012 -0.362 11.1526 1.20486 -0.300528 10.8791 2.04219 -0.761567 11.4091 2.13179 -0.362 11.1526 1.20486 0.249302 11.3965 1.95123 -0.300528 10.8791 2.04219 -0.761567 11.4091 2.13179 1.28408 11.4068 1.26583 1.05527 10.9839 2.26765 0.454208 11.4441 1.99583 1.32847 11.5669 2.38094 0.382491 11.1517 1.19123 0.338095 10.8784 2.03197 -0.201491 11.3977 1.96826 0.382491 11.1517 1.19123 0.819624 11.4065 2.09432 0.338095 10.8784 2.03197 0.819624 11.4065 2.09432 1.39678 13.1631 3.81329 1.62217 12.9047 2.51676 1.47191 13.2891 3.7052 -0.795718 10.273 3.99827 0.000000 9.57779 4.68022 -0.440547 9.67082 4.78669 0.000000 9.73593 5.17926 0.440548 9.67082 4.78669 0.795718 10.273 3.99827 0.000000 11.1983 1.71175 -1.10308 12.4644 1.80124 0.000000 12.0029 1.46721 -0.87085 10.9786 2.0455 1.43434 10.8813 2.85681 -0.976718 10.6112 3.64597 -1.43434 10.8813 2.85681 0.976718 10.6112 3.64597 0.000000 12.0029 1.46721 0.87085 10.9786 2.0455 0.000000 11.1983 1.71175 1.10308 12.4644 1.80124 0.87085 10.9786 2.0455 1.48215 11.5648 2.69262 1.43434 10.8813 2.85681 1.53338 12.7763 2.63871 1.93978 11.8119 2.21317 2.56132 13.4872 1.20251 1.28749 11.8526 2.20691 1.91245 11.5482 2.35828 1.56753 11.4857 3.03023 -1.56753 11.4827 3.03728 -1.93978 11.8119 2.21317 -1.91245 11.5489 2.3685 -1.91245 11.5482 2.35828 -1.28749 11.8526 2.20691 -1.56753 11.4857 3.03023 0.87085 10.9786 2.0455 -0.87085 10.9786 2.0455 0.000000 11.1983 1.71175 1.62217 12.9047 2.51676 0.87085 10.9786 2.0455 1.10308 12.4644 1.80124 1.48215 11.5648 2.69262 -1.48215 11.5648 2.69262 -0.87085 10.9786 2.0455 -1.43434 10.8813 2.85681 2.56132 13.4868 1.19569 1.28749 11.8526 2.20691 1.53338 12.7756 2.62849 1.93978 11.8149 2.20612 -2.56132 13.4868 1.19569 -1.53338 12.7756 2.62849 -1.93978 11.8149 2.20612 -1.53338 12.7763 2.63871 -2.56132 13.4872 1.20251 1.56753 11.4827 3.03728 1.91245 11.5489 2.3685 0.87085 10.9786 2.0455 -0.87085 10.9786 2.0455 -1.91245 11.5482 2.35828 -1.62217 12.9047 2.51676 -1.39678 13.1631 3.81329 -1.47191 13.2891 3.7052 -1.48215 11.5648 2.69262 -0.87085 10.9786 2.0455 -1.62217 12.9047 2.51676 1.38311 12.2558 3.9589 -1.38311 12.2558 3.9589 -1.48215 11.5648 2.69262 1.48215 11.5648 2.69262 -5.07085 8.52746 3.59641 -3.50475 8.01653 3.67522 -4.5013 8.26591 2.42507 -5.73049 7.42575 2.72877 -3.69795 7.41342 4.52378 -5.30697 8.01647 4.45144 -5.98841 6.79414 3.56817 -4.99132 6.75238 4.48916 3.50475 8.01653 3.67522 5.07085 8.52746 3.59641 4.5013 8.26591 2.42507 5.73049 7.42575 2.72877 5.30697 8.01647 4.45144 3.69795 7.41342 4.52378 4.99132 6.75238 4.48916 5.98841 6.79414 3.56817 -4.29603 -0.029147 0.569706 -2.29204 -0.013421 1.74376 -3.78583 0.385835 1.95154 -0.964419 0.007745 -0.374579 -3.06398 -0.008643 -1.61492 -1.45235 0.020891 -1.8639 2.34838 -0.009806 1.77178 4.34269 -0.037212 0.555842 3.84562 0.394858 1.96147 3.10866 -0.038453 -1.57966 1.01812 -0.009725 -0.30506 1.50691 -0.011553 -1.83895</float_array>
          <technique_common>
            <accessor source="#GeometrySource3-array" count="120" stride="3">
              <param name="X" type="float"/>
              <param name="Y" type="float"/>
              <param name="Z" type="float"/>
            </accessor>
          </technique_common>
        </source>
        <source id="GeometrySource4" name="unnamed_mtl_0003Nrm">
          <float_array id="GeometrySource4-array" count="360">-0.567522 -0.333123 -0.75296 -0.35319 -0.888079 -0.294234 -0.822861 0.556946 -0.112742 0.63331 0.240429 -0.735603 -0.197015 -0.475567 -0.857334 -0.08821 -0.948757 -0.303446 -0.827086 0.33705 -0.449807 -0.197015 -0.475567 -0.857334 0.696556 0.278146 -0.661396 -0.08821 -0.948757 -0.303446 -0.827086 0.33705 -0.449807 0.565677 -0.332464 -0.754637 0.352173 -0.888365 -0.294587 -0.634839 0.241214 -0.734026 0.822783 0.557059 -0.112755 0.134712 -0.483835 -0.864729 0.059792 -0.950242 -0.305721 -0.720273 0.286134 -0.631929 0.134712 -0.483835 -0.864729 0.81192 0.325219 -0.484787 0.059792 -0.950242 -0.305721 0.81192 0.325219 -0.484787 0.71852 0.020222 0.695213 0.963143 -0.265876 -0.040811 0.788502 -0.003123 0.615025 -0.496087 -0.745382 -0.445313 0.000000 -0.967674 -0.252205 -0.708894 -0.636927 0.302975 0.000000 -0.372897 0.927873 0.708894 -0.636927 0.302975 0.608697 -0.711386 -0.351309 -0.110419 -0.431862 -0.895155 -0.643767 -0.445008 -0.62252 -0.01613 -0.556112 -0.830951 -0.460465 -0.591013 -0.662327 0.602759 -0.77503 -0.189766 -0.7044 -0.706566 0.067708 -0.602432 -0.785212 -0.143241 0.729219 -0.68424 -0.007381 -0.01613 -0.556112 -0.830951 0.470184 -0.592708 -0.65393 -0.110419 -0.431862 -0.895155 0.61532 -0.562323 -0.552425 0.470184 -0.592708 -0.65393 0.958259 -0.13075 -0.254252 0.602759 -0.77503 -0.189766 0.837409 0.117335 0.533833 0.847893 0.13998 0.511353 0.794795 0.068874 0.602957 -0.40623 -0.482759 -0.775836 -0.216244 -0.753057 -0.621404 -0.367475 -0.889536 -0.271456 -0.869277 0.174681 0.462433 -0.847893 0.13998 0.511353 -0.865918 0.184595 0.464876 0.216244 -0.753057 -0.621404 0.40623 -0.482759 -0.775836 0.367475 -0.889536 -0.271455 0.470184 -0.592708 -0.65393 -0.460465 -0.591013 -0.662327 -0.110419 -0.431862 -0.895155 0.963143 -0.265876 -0.040811 0.470184 -0.592708 -0.65393 0.61532 -0.562323 -0.552425 0.958259 -0.13075 -0.254252 -0.94129 -0.148733 -0.303069 -0.460465 -0.591013 -0.662327 -0.602432 -0.785212 -0.143241 -0.562725 -0.070988 -0.82359 -0.40623 -0.482759 -0.775836 -0.827003 0.400517 -0.394528 -0.030004 -0.500917 -0.864975 0.562725 -0.070988 -0.82359 0.827002 0.400518 -0.394528 0.030004 -0.500917 -0.864975 -0.83741 0.117335 0.533833 -0.794795 0.068874 0.602957 0.869277 0.174682 0.462433 0.865918 0.184596 0.464876 0.470184 -0.592708 -0.65393 -0.460465 -0.591013 -0.662327 0.216244 -0.753057 -0.621404 -0.941073 -0.33723 -0.025656 -0.71852 0.020222 0.695213 -0.802287 -0.079807 0.591579 -0.94129 -0.148733 -0.303069 -0.460465 -0.591013 -0.662327 -0.941073 -0.33723 -0.025656 0.868028 -0.086513 0.48892 -0.868028 -0.086513 0.48892 -0.94129 -0.148733 -0.303069 0.958259 -0.13075 -0.254252 -0.16997 0.96817 0.183731 0.949004 0.302533 -0.088687 0.147254 0.592539 -0.791968 -0.80387 0.218314 -0.553292 0.51473 0.160782 0.842142 -0.608979 0.441918 0.658675 -0.805481 -0.591746 -0.032202 -0.236122 -0.487181 0.840774 -0.749931 0.651908 0.112337 0.469517 0.881872 0.043086 -0.147254 0.592539 -0.791968 0.650433 -0.112719 -0.751153 0.302806 0.522904 0.796794 -0.734822 -0.211394 0.644476 0.236122 -0.487182 0.840774 0.957518 -0.226588 0.178374 -0.657324 -0.751585 0.055191 0.464577 -0.46565 0.753219 -0.345054 -0.724568 0.596607 0.57207 -0.817433 0.06738 -0.62206 -0.461033 -0.632842 0.52137 -0.025012 -0.852964 -0.265744 -0.73777 0.620544 0.875008 -0.481069 -0.054167 0.354444 -0.722193 0.593975 0.347786 -0.668584 -0.657298 -0.939027 -0.302407 0.163639 -0.485851 -0.388377 -0.783015</float_array>
          <technique_common>
            <accessor source="#GeometrySource4-array" count="120" stride="3">
              <param name="X" type="float"/>
              <param name="Y" type="float"/>
              <param name="Z" type="float"/>
            </accessor>
          </technique_common>
        </source>
        <source id="GeometrySource5" name="unnamed_mtl_0003UV">
          <float_array id="GeometrySource5-array" count="240">0.809759 -0.961236 0.81127 -0.971183 0.80947 -0.964784 0.81525 -0.964784 0.815421 -0.961236 0.815834 -0.971183 0.812774 -0.964784 0.818211 -0.955656 0.82005 -0.959204 0.816392 -0.965602 0.813332 -0.959204 0.826321 -0.961236 0.824809 -0.971183 0.82083 -0.964784 0.82661 -0.964784 0.823142 -0.955656 0.820627 -0.965602 0.817047 -0.959204 0.820352 -0.961236 0.823244 -0.964784 0.820069 -0.971183 0.823802 -0.959204 0.142205 -0.630051 0.009701 -0.994262 0.01541 -0.630051 0.111979 -0.548828 0.141927 -0.539063 0.111979 -0.541667 0.141927 -0.529297 0.166667 -0.540365 0.167969 -0.548177 0.628472 -0.942708 0.611111 -0.944444 0.614583 -0.942708 0.625 -0.942708 0.170573 -0.567708 0.110677 -0.556641 0.109375 -0.567708 0.169271 -0.557943 0.628472 -0.942708 0.611111 -0.944444 0.614583 -0.942708 0.625 -0.942708 0.200368 -0.370404 0 -0.444853 0.370833 -0.527083 0.004734 -0.034864 0.114583 -0.169271 0.238163 -0.000966 0.82086 -0.588228 0.90539 -0.58665 0.823275 -0.58665 0.009943 -0.22497 0.114583 -0.169271 0.104167 -0.208333 0.82086 -0.588228 0.90539 -0.58665 0.823275 -0.58665 0.375 -0.94375 0.3875 -0.940625 0.3875 -0.94375 0.614583 -0.942708 0.586857 -0.927907 0.611111 -0.944444 0.628472 -0.942708 0 -0.444853 0.200368 -0.370404 0.370833 -0.527083 0.960938 -0.723958 0.823275 -0.58665 0.82086 -0.588228 0.90539 -0.58665 0.960938 -0.723958 0.823275 -0.58665 0.823275 -0.58665 0.004734 -0.034864 0.238163 -0.000966 0.009943 -0.22497 0.104167 -0.208333 0.158854 -0.574219 0.119792 -0.574219 0.823275 -0.58665 0.009701 -0.994262 0.142205 -0.630051 0.01541 -0.630051 0.614583 -0.942708 0.585455 -0.928188 0.628472 -0.942708 0.873993 -0.641889 0.873993 -0.641889 0.993749 -0.994717 0.993749 -0.994717 0.674107 -0.087053 0.991071 -0.087053 0.675 0.046875 0.294643 -0.088169 0.991071 -0.305804 0.671875 -0.305804 0.294643 -0.305804 0.66875 -0.35 0.294643 -0.088169 0.673077 -0.08774 0.675481 0.027644 0.991071 -0.087053 0.670673 -0.304087 0.294643 -0.304688 0.670673 -0.353365 0.991071 -0.304688 0.301136 -0.589235 0.301136 -0.589235 0.301136 -0.589235 0.301136 -0.589235 0.301136 -0.589235 0.301136 -0.589235 0.301136 -0.589235 0.301136 -0.589235 0.301136 -0.589235 0.301136 -0.589235 0.301136 -0.589235 0.301136 -0.589235</float_array>
          <technique_common>
            <accessor source="#GeometrySource5-array" count="120" stride="2">
              <param name="S" type="float"/>
              <param name="T" type="float"/>
            </accessor>
          </technique_common>
        </source>
        <vertices id="Geometry1-vertices">
          <input semantic="POSITION" source="#GeometrySource3"/>
          <input semantic="NORMAL" source="#GeometrySource4"/>
          <input semantic="TEXCOORD" source="#GeometrySource5"/>
        </vertices>
        <triangles material="VisualMaterial10" count="78">
          <input semantic="VERTEX" source="#Geometry1-vertices" offset="0"/>
          <p>0 1 2 0 3 1 3 0 2 4 5 6 7 8 9 8 7 10 11 12 13 14 11 13 11 14 12 15 16 17 18 19 20 21 15 17 22 23 24 25 26 27 26 28 27 26 29 28 26 30 29 25 30 26 31 32 33 34 32 31 35 36 37 36 38 25 25 38 30 38 36 35 39 40 41 42 40 39 43 44 45 46 47 48 49 50 51 52 53 54 55 56 57 58 59 60 61 62 63 64 62 61 65 66 67 68 69 70 69 71 50 71 69 68 56 72 73 56 74 72 52 75 53 53 75 76 77 47 46 47 77 78 37 79 35 80 79 37 74 56 81 82 83 84 85 32 86 87 32 85 88 23 22 82 89 83 89 82 90 23 88 91 92 93 94 94 95 92 92 96 93 95 97 92 97 96 92 98 97 95 97 98 99 96 97 99 100 101 102 103 102 101 100 104 101 105 104 100 104 105 106 101 107 103 107 104 106 104 107 101 108 109 110 109 108 111 111 108 112 111 112 113 114 115 116 114 117 115 118 117 114 117 118 119</p>
        </triangles>
      </mesh>
    </geometry>
    <geometry id="Geometry2" name="unnamed_mtl_0004">
      <mesh>
        <source id="GeometrySource6" name="unnamed_mtl_0004Pos">
          <float_array id="GeometrySource6-array" count="126">0.976718 10.6112 3.64597 1.38311 12.2558 3.9589 0.901586 11.6532 4.25095 -0.665944 10.554 4.49214 -0.795718 10.273 3.99827 -0.440547 9.67082 4.78669 -1.43434 10.8813 2.85681 -1.38311 12.2558 3.9589 -1.48215 11.5648 2.69262 0.000000 9.73593 5.17926 -1.39678 13.1631 3.81329 0.000000 12.2121 4.75277 0.000000 13.2868 4.55437 -1.38311 12.2558 3.9589 0.000000 13.7478 4.63511 -1.47191 13.2891 3.7052 0.665944 10.554 4.49214 0.440548 9.67082 4.78669 0.000000 12.2121 4.75277 0.901586 11.6532 4.25095 1.38311 12.2558 3.9589 1.39678 13.1631 3.81329 0.000000 13.7478 4.63511 0.000000 13.2868 4.55437 1.47191 13.2891 3.7052 -0.901586 11.6532 4.25095 0.795718 10.273 3.99827 0.000000 12.2121 4.75277 0.901586 11.6532 4.25095 0.000000 10.7769 4.98664 0.665944 10.554 4.49214 -0.976718 10.6112 3.64597 -0.901586 11.6532 4.25095 -0.665944 10.554 4.49214 0.000000 12.2121 4.75277 -0.901586 11.6532 4.25095 1.43434 10.8813 2.85681 1.48215 11.5648 2.69262 0.000000 10.7769 4.98664 0.000000 9.73593 5.17926 -0.976718 10.6112 3.64597 0.976718 10.6112 3.64597</float_array>
          <technique_common>
            <accessor source="#GeometrySource6-array" count="42" stride="3">
              <param name="X" type="float"/>
              <param name="Y" type="float"/>
              <param name="Z" type="float"/>
            </accessor>
          </technique_common>
        </source>
        <source id="GeometrySource7" name="unnamed_mtl_0004Nrm">
          <float_array id="GeometrySource7-array" count="126">0.729219 -0.68424 -0.007381 0.868028 -0.086513 0.48892 0.694818 -0.04641 0.717687 -0.818621 -0.025927 0.573748 -0.496087 -0.745382 -0.445313 -0.708894 -0.636927 0.302975 -0.602432 -0.785212 -0.143241 -0.868028 -0.086513 0.48892 -0.94129 -0.148733 -0.303069 0.000000 -0.372897 0.927873 -0.71852 0.020222 0.695213 0 0.130004 0.991513 -0.000000 0.003446 0.999994 -0.868028 -0.086513 0.48892 -0.000000 0.055139 0.998479 -0.802287 -0.079807 0.591579 0.818622 -0.025927 0.573748 0.708894 -0.636927 0.302975 0 0.130004 0.991513 0.694818 -0.04641 0.717687 0.868028 -0.086513 0.48892 0.71852 0.020222 0.695213 -0.000000 0.055139 0.998479 -0.000000 0.003446 0.999994 0.788502 -0.003123 0.615025 -0.694818 -0.04641 0.717687 0.608697 -0.711386 -0.351309 0 0.130004 0.991513 0.694818 -0.04641 0.717687 0 0.133419 0.99106 0.818622 -0.025927 0.573748 -0.7044 -0.706566 0.067708 -0.694818 -0.04641 0.717687 -0.818621 -0.025927 0.573748 0 0.130004 0.991513 -0.694818 -0.04641 0.717687 0.602759 -0.77503 -0.189766 0.958259 -0.13075 -0.254252 0 0.133419 0.99106 0.000000 -0.372897 0.927873 -0.7044 -0.706566 0.067708 0.729219 -0.68424 -0.007381</float_array>
          <technique_common>
            <accessor source="#GeometrySource7-array" count="42" stride="3">
              <param name="X" type="float"/>
              <param name="Y" type="float"/>
              <param name="Z" type="float"/>
            </accessor>
          </technique_common>
        </source>
        <source id="GeometrySource8" name="unnamed_mtl_0004UV">
          <float_array id="GeometrySource8-array" count="84">0.765625 -0.985937 0.771875 -0.540625 0.646875 -0.696875 0.392188 -1.00625 0.457031 -0.994792 0.476563 -0.990885 0.00625 -0.915625 0.225 -0.540625 -0.00625 -0.721875 0.498798 -0.97476 0.068359 -0.125 0.485938 -0.470312 0.485938 -0.132813 0.089843 -0.382813 0.485938 -0.017187 0.068359 -0.111328 0.605114 -1.0071 0.513021 -0.990885 0.498437 -0.470312 0.677734 -0.648438 0.908203 -0.382813 0.927734 -0.128906 0.5125 -0.017187 0.5125 -0.132813 0.927734 -0.111328 0.320313 -0.652344 0.532552 -0.99349 0.5125 -0.470312 0.646875 -0.695313 0.498798 -0.97476 0.607813 -1.00469 0.232812 -0.985937 0.351563 -0.696875 0.390625 -1.00625 0.49858 -0.571023 0.35 -0.696875 0.99375 -0.915625 1.00312 -0.720312 0.49858 -0.995739 0.497396 -0.990885 0.440104 -0.994792 0.554688 -0.996094</float_array>
          <technique_common>
            <accessor source="#GeometrySource8-array" count="42" stride="2">
              <param name="S" type="float"/>
              <param name="T" type="float"/>
            </accessor>
          </technique_common>
        </source>
        <vertices id="Geometry2-vertices">
          <input semantic="POSITION" source="#GeometrySource6"/>
          <input semantic="NORMAL" source="#GeometrySource7"/>
          <input semantic="TEXCOORD" source="#GeometrySource8"/>
        </vertices>
        <triangles material="VisualMaterial20" count="30">
          <input semantic="VERTEX" source="#Geometry2-vertices" offset="0"/>
          <p>0 1 2 3 4 5 6 7 8 9 3 5 10 11 12 13 11 10 12 14 10 10 14 15 16 9 17 18 19 20 21 22 23 24 22 21 25 18 13 26 16 17 20 21 27 27 21 23 28 29 16 0 2 30 7 6 31 7 31 32 32 31 33 29 28 34 29 35 3 35 29 34 36 1 0 1 36 37 3 9 38 39 16 29 4 3 40 16 26 41</p>
        </triangles>
      </mesh>
    </geometry>
  </library_geometries>
  <library_controllers>
    <controller id="Controller">
      <skin source="#Geometry">
        <bind_shape_matrix>1 0 0 0 0 1 0 0 0 0 1 0 0 0 0 1</bind_shape_matrix>
        <source id="Controller-joints">
          <Name_array id="Controller-joints-array" count="39">_x00 _x01 _x19 node_unnamed_0003 _x02 _x14 _x16 _x18 node_unnamed_0008 _x17 node_unnamed_0010 _x15 node_unnamed_0012 _x03 _x0F _x11 _x13 node_unnamed_0017 _x12 node_unnamed_0019 _x10 node_unnamed_0021 _x04 _x0A _x0C _x0E node_unnamed_0026 _x0D node_unnamed_0028 _x0B node_unnamed_0030 _x05 _x07 _x09 node_unnamed_0034 _x08 node_unnamed_0036 _x06 node_unnamed_0038</Name_array>
          <technique_common>
            <accessor source="#Controller-joints-array" count="39" stride="1">
              <param name="JOINT" type="Name"/>
            </accessor>
          </technique_common>
        </source>
        <source id="Controller-bind_poses">
          <float_array id="Controller-bind_poses-array" count="624">1 0 0 0 0 0.898794 0.438371 -6.08344 0 -0.438371 0.898794 3.00714 0 0 0 1 1 0 0 0 0 0.997564 -0.069756 -9.80883 0 0.069756 0.997564 -2.93553 0 0 0 1 1 0 0 0 0 0.997564 -0.069756 -9.80883 0 0.069756 0.997564 -2.93553 0 0 0 1 1 0 0 0 0 0.997564 -0.069756 -9.80884 0 0.069756 0.997564 -2.93553 0 0 0 1 0.6181 0.064091 0.783482 0.134273 0.639806 0.538056 -0.548766 -3.07249 -0.456729 0.840469 0.291566 -5.99699 0 0 0 1 0.728985 -0.198764 0.655037 2.03121 -0.151959 0.88605 0.437977 -5.66418 -0.66745 -0.418818 0.615713 -0.626895 0 0 0 1 0.853757 0.006527 0.52063 2.00631 -0.012783 0.999883 0.008427 -1.86416 -0.520514 -0.01385 0.853741 -0.940979 0 0 0 1 0.853757 0.006527 0.52063 2.00631 -0.012783 0.999883 0.008427 -1.86416 -0.520514 -0.01385 0.853741 -0.940979 0 0 0 1 0.853757 0.006527 0.52063 2.00631 -0.012783 0.999883 0.008427 -1.86416 -0.520514 -0.01385 0.853741 -0.940978 0 0 0 1 0.728985 -0.198764 0.655037 2.03121 -0.151959 0.88605 0.437977 -5.66418 -0.66745 -0.418818 0.615713 -0.626895 0 0 0 1 0.728985 -0.198764 0.655037 2.03121 -0.15196 0.88605 0.437977 -5.66418 -0.66745 -0.418818 0.615713 -0.626895 0 0 0 1 0.6181 0.064091 0.783482 0.134273 0.639806 0.538056 -0.548766 -3.07249 -0.456729 0.840469 0.291566 -5.99699 0 0 0 1 0.6181 0.064091 0.783482 0.134273 0.639806 0.538056 -0.548766 -3.07249 -0.456729 0.840469 0.291566 -5.99699 0 0 0 1 0.6181 -0.071922 -0.782802 -0.081895 -0.639806 0.532541 -0.554119 -3.03585 0.456728 0.843343 0.283147 -6.01656 0 0 0 1 0.728985 0.192205 -0.656992 -1.98745 0.151959 0.890385 0.429095 -5.69104 0.66745 -0.412639 0.61987 -0.685843 0 0 0 1 0.853758 -0.011732 -0.520538 -1.92041 0.012782 0.999917 -0.001571 -1.85331 0.520514 -0.005312 0.853837 -1.00357 0 0 0 1 0.853758 -0.011732 -0.520538 -1.92041 0.012782 0.999917 -0.001571 -1.85331 0.520514 -0.005312 0.853837 -1.00357 0 0 0 1 0.853758 -0.011732 -0.520538 -1.92041 0.012782 0.999917 -0.001571 -1.85331 0.520514 -0.005312 0.853837 -1.00357 0 0 0 1 0.728985 0.192205 -0.656992 -1.98745 0.151959 0.890385 0.429095 -5.69104 0.66745 -0.412639 0.61987 -0.685843 0 0 0 1 0.728985 0.192205 -0.656992 -1.98745 0.151959 0.890385 0.429095 -5.69104 0.66745 -0.412639 0.61987 -0.685843 0 0 0 1 0.6181 -0.071922 -0.782802 -0.081895 -0.639806 0.532541 -0.554119 -3.03585 0.456728 0.843343 0.283147 -6.01656 0 0 0 1 0.6181 -0.071922 -0.782802 -0.081895 -0.639806 0.532541 -0.554119 -3.03585 0.456728 0.843343 0.283147 -6.01656 0 0 0 1 0.453368 -0.822676 -0.343017 9.25434 0.845127 0.274477 0.458719 -1.56471 -0.283227 -0.497862 0.819705 2.9742 0 0 0 1 0.409685 -0.776507 -0.478744 8.82158 0.172993 0.581417 -0.795001 -4.18458 0.895674 0.24288 0.372528 0.636387 0 0 0 1 0.409685 -0.776507 -0.478744 8.73074 0.172993 0.581417 -0.795001 -1.28433 0.895674 0.24288 0.372528 0.53463 0 0 0 1 0.409685 -0.776507 -0.478744 8.73074 0.172993 0.581417 -0.795001 -1.28433 0.895674 0.24288 0.372528 0.53463 0 0 0 1 0.409685 -0.776507 -0.478744 8.73074 0.172993 0.581417 -0.795001 -1.28433 0.895674 0.24288 0.372528 0.534631 0 0 0 1 0.409685 -0.776507 -0.478744 8.82158 0.172993 0.581417 -0.795001 -4.18458 0.895674 0.24288 0.372528 0.636387 0 0 0 1 0.409685 -0.776507 -0.478744 8.82158 0.172993 0.581417 -0.795001 -4.18458 0.895674 0.24288 0.372528 0.636387 0 0 0 1 0.453368 -0.822676 -0.343017 9.25435 0.845127 0.274477 0.458719 -1.56471 -0.283227 -0.497862 0.819705 2.9742 0 0 0 1 0.453368 -0.822676 -0.343017 9.25435 0.845127 0.274477 0.458719 -1.56471 -0.283227 -0.497862 0.819705 2.9742 0 0 0 1 0.453368 0.822676 0.343017 -9.25434 -0.845127 0.274477 0.458719 -1.56471 0.283227 -0.497862 0.819705 2.9742 0 0 0 1 0.409685 0.776507 0.478744 -8.82158 -0.172993 0.581417 -0.795001 -4.18458 -0.895674 0.24288 0.372528 0.636387 0 0 0 1 0.409685 0.776507 0.478744 -8.82158 -0.172993 0.581417 -0.795001 -4.18458 -0.895674 0.24288 0.372528 0.636387 0 0 0 1 0.409685 0.776507 0.478744 -8.82158 -0.172993 0.581417 -0.795001 -4.18458 -0.895674 0.24288 0.372528 0.636387 0 0 0 1 0.453368 0.822676 0.343017 -9.25435 -0.845127 0.274477 0.458719 -1.56471 0.283227 -0.497862 0.819705 2.9742 0 0 0 1 0.453368 0.822676 0.343017 -9.25435 -0.845127 0.274477 0.458719 -1.56471 0.283227 -0.497862 0.819705 2.9742 0 0 0 1 1 0 0 0 0 0.898794 0.438371 -6.08344 0 -0.438371 0.898794 3.00714 0 0 0 1 1 0 0 0 0 0.898794 0.438371 -6.08344 0 -0.438371 0.898794 3.00714 0 0 0 1</float_array>
          <technique_common>
            <accessor source="#Controller-bind_poses-array" count="39" stride="16">
              <param name="TRANSFORM" type="float4x4"/>
            </accessor>
          </technique_common>
        </source>
        <source id="Controller-weights">
          <float_array id="Controller-weights-array" count="1">1</float_array>
          <technique_common>
            <accessor source="#Controller-weights-array" count="1" stride="1">
              <param name="WEIGHT" type="float"/>
            </accessor>
          </technique_common>
        </source>
        <joints>
          <input semantic="JOINT" source="#Controller-joints"/>
          <input semantic="INV_BIND_MATRIX" source="#Controller-bind_poses"/>
        </joints>
        <vertex_weights count="326">
          <input semantic="JOINT" source="#Controller-joints" offset="0"/>
          <input semantic="WEIGHT" source="#Controller-weights" offset="1"/>
          <vcount>1 1 1 1 1 1 1 1 1 1 1 1 1 1 1 1 1 1 1 1 1 1 1 1 1 1 1 1 1 1 1 1 1 1 1 1 1 1 1 1 1 1 1 1 1 1 1 1 1 1 1 1 1 1 1 1 1 1 1 1 1 1 1 1 1 1 1 1 1 1 1 1 1 1 1 1 1 1 1 1 1 1 1 1 1 1 1 1 1 1 1 1 1 1 1 1 1 1 1 1 1 1 1 1 1 1 1 1 1 1 1 1 1 1 1 1 1 1 1 1 1 1 1 1 1 1 1 1 1 1 1 1 1 1 1 1 1 1 1 1 1 1 1 1 1 1 1 1 1 1 1 1 1 1 1 1 1 1 1 1 1 1 1 1 1 1 1 1 1 1 1 1 1 1 1 1 1 1 1 1 1 1 1 1 1 1 1 1 1 1 1 1 1 1 1 1 1 1 1 1 1 1 1 1 1 1 1 1 1 1 1 1 1 1 1 1 1 1 1 1 1 1 1 1 1 1 1 1 1 1 1 1 1 1 1 1 1 1 1 1 1 1 1 1 1 1 1 1 1 1 1 1 1 1 1 1 1 1 1 1 1 1 1 1 1 1 1 1 1 1 1 1 1 1 1 1 1 1 1 1 1 1 1 1 1 1 1 1 1 1 1 1 1 1 1 1 1 1 1 1 1 1 1 1 1 1 1 1 1 1 1 1 1 1 1 1 1 1 1 1 1 1 1 1 1 1 </vcount>
          <v>3 0 3 0 3 0 3 0 3 0 3 0 3 0 3 0 3 0 3 0 3 0 3 0 3 0 3 0 3 0 3 0 3 0 3 0 3 0 3 0 3 0 3 0 3 0 3 0 3 0 3 0 3 0 3 0 3 0 3 0 3 0 3 0 3 0 3 0 3 0 3 0 3 0 3 0 3 0 3 0 3 0 3 0 3 0 3 0 3 0 3 0 3 0 3 0 3 0 3 0 3 0 3 0 3 0 3 0 3 0 3 0 3 0 3 0 3 0 3 0 3 0 3 0 3 0 3 0 3 0 3 0 3 0 3 0 3 0 3 0 3 0 3 0 3 0 3 0 3 0 3 0 3 0 3 0 3 0 3 0 3 0 3 0 3 0 3 0 3 0 3 0 3 0 3 0 3 0 3 0 3 0 3 0 3 0 3 0 3 0 3 0 3 0 3 0 3 0 3 0 3 0 3 0 3 0 3 0 3 0 3 0 3 0 3 0 3 0 3 0 3 0 8 0 8 0 8 0 8 0 8 0 8 0 8 0 8 0 8 0 8 0 8 0 8 0 8 0 8 0 8 0 8 0 10 0 10 0 10 0 10 0 10 0 10 0 10 0 10 0 10 0 10 0 12 0 12 0 12 0 12 0 12 0 12 0 12 0 12 0 12 0 12 0 17 0 17 0 17 0 17 0 17 0 17 0 17 0 17 0 17 0 17 0 17 0 17 0 17 0 17 0 19 0 19 0 19 0 19 0 19 0 19 0 19 0 19 0 19 0 19 0 21 0 21 0 21 0 21 0 21 0 21 0 21 0 21 0 21 0 21 0 28 0 28 0 28 0 28 0 28 0 28 0 28 0 28 0 28 0 28 0 28 0 28 0 28 0 28 0 28 0 28 0 28 0 28 0 28 0 28 0 28 0 28 0 28 0 28 0 28 0 30 0 30 0 30 0 30 0 30 0 30 0 30 0 30 0 30 0 30 0 34 0 34 0 34 0 34 0 34 0 34 0 34 0 34 0 34 0 34 0 34 0 34 0 34 0 34 0 34 0 34 0 34 0 34 0 34 0 34 0 34 0 34 0 34 0 34 0 34 0 34 0 34 0 34 0 34 0 34 0 36 0 36 0 36 0 36 0 36 0 36 0 36 0 36 0 36 0 36 0 38 0 38 0 38 0 38 0 38 0 38 0 38 0 38 0 38 0 38 0 38 0 38 0 38 0 38 0 38 0 38 0 38 0 38 0 38 0 38 0 38 0 38 0 38 0 38 0 38 0 38 0 38 0 38 0 38 0 38 0 38 0 38 0 38 0 38 0 38 0 38 0 38 0 38 0 38 0 38 0 38 0 38 0 38 0 38 0 38 0 38 0 38 0 38 0 38 0 38 0 38 0 38 0 38 0 38 0 38 0 38 0 38 0 38 0 38 0 38 0 38 0 38 0 38 0 38 0 38 0 38 0 38 0 38 0 38 0 38 0</v>
        </vertex_weights>
      </skin>
      <extra>
        <technique profile="FCOLLADA">
          <user_properties>SkinController</user_properties>
        </technique>
      </extra>
    </controller>
    <controller id="Controller1">
      <skin source="#Geometry1">
        <bind_shape_matrix>1 0 0 0 0 1 0 0 0 0 1 0 0 0 0 1</bind_shape_matrix>
        <source id="Controller1-joints">
          <Name_array id="Controller1-joints-array" count="39">_x00 _x01 _x19 node_unnamed_0003 _x02 _x14 _x16 _x18 node_unnamed_0008 _x17 node_unnamed_0010 _x15 node_unnamed_0012 _x03 _x0F _x11 _x13 node_unnamed_0017 _x12 node_unnamed_0019 _x10 node_unnamed_0021 _x04 _x0A _x0C _x0E node_unnamed_0026 _x0D node_unnamed_0028 _x0B node_unnamed_0030 _x05 _x07 _x09 node_unnamed_0034 _x08 node_unnamed_0036 _x06 node_unnamed_0038</Name_array>
          <technique_common>
            <accessor source="#Controller1-joints-array" count="39" stride="1">
              <param name="JOINT" type="Name"/>
            </accessor>
          </technique_common>
        </source>
        <source id="Controller1-bind_poses">
          <float_array id="Controller1-bind_poses-array" count="624">1 0 0 0 0 0.898794 0.438371 -6.08344 0 -0.438371 0.898794 3.00714 0 0 0 1 1 0 0 0 0 0.997564 -0.069756 -9.80883 0 0.069756 0.997564 -2.93553 0 0 0 1 1 0 0 0 0 0.997564 -0.069756 -9.80883 0 0.069756 0.997564 -2.93553 0 0 0 1 1 0 0 0 0 0.997564 -0.069756 -9.80884 0 0.069756 0.997564 -2.93553 0 0 0 1 0.6181 0.064091 0.783482 0.134273 0.639806 0.538056 -0.548766 -3.07249 -0.456729 0.840469 0.291566 -5.99699 0 0 0 1 0.728985 -0.198764 0.655037 2.03121 -0.151959 0.88605 0.437977 -5.66418 -0.66745 -0.418818 0.615713 -0.626895 0 0 0 1 0.853757 0.006527 0.52063 2.00631 -0.012783 0.999883 0.008427 -1.86416 -0.520514 -0.01385 0.853741 -0.940979 0 0 0 1 0.853757 0.006527 0.52063 2.00631 -0.012783 0.999883 0.008427 -1.86416 -0.520514 -0.01385 0.853741 -0.940979 0 0 0 1 0.853757 0.006527 0.52063 2.00631 -0.012783 0.999883 0.008427 -1.86416 -0.520514 -0.01385 0.853741 -0.940978 0 0 0 1 0.728985 -0.198764 0.655037 2.03121 -0.151959 0.88605 0.437977 -5.66418 -0.66745 -0.418818 0.615713 -0.626895 0 0 0 1 0.728985 -0.198764 0.655037 2.03121 -0.15196 0.88605 0.437977 -5.66418 -0.66745 -0.418818 0.615713 -0.626895 0 0 0 1 0.6181 0.064091 0.783482 0.134273 0.639806 0.538056 -0.548766 -3.07249 -0.456729 0.840469 0.291566 -5.99699 0 0 0 1 0.6181 0.064091 0.783482 0.134273 0.639806 0.538056 -0.548766 -3.07249 -0.456729 0.840469 0.291566 -5.99699 0 0 0 1 0.6181 -0.071922 -0.782802 -0.081895 -0.639806 0.532541 -0.554119 -3.03585 0.456728 0.843343 0.283147 -6.01656 0 0 0 1 0.728985 0.192205 -0.656992 -1.98745 0.151959 0.890385 0.429095 -5.69104 0.66745 -0.412639 0.61987 -0.685843 0 0 0 1 0.853758 -0.011732 -0.520538 -1.92041 0.012782 0.999917 -0.001571 -1.85331 0.520514 -0.005312 0.853837 -1.00357 0 0 0 1 0.853758 -0.011732 -0.520538 -1.92041 0.012782 0.999917 -0.001571 -1.85331 0.520514 -0.005312 0.853837 -1.00357 0 0 0 1 0.853758 -0.011732 -0.520538 -1.92041 0.012782 0.999917 -0.001571 -1.85331 0.520514 -0.005312 0.853837 -1.00357 0 0 0 1 0.728985 0.192205 -0.656992 -1.98745 0.151959 0.890385 0.429095 -5.69104 0.66745 -0.412639 0.61987 -0.685843 0 0 0 1 0.728985 0.192205 -0.656992 -1.98745 0.151959 0.890385 0.429095 -5.69104 0.66745 -0.412639 0.61987 -0.685843 0 0 0 1 0.6181 -0.071922 -0.782802 -0.081895 -0.639806 0.532541 -0.554119 -3.03585 0.456728 0.843343 0.283147 -6.01656 0 0 0 1 0.6181 -0.071922 -0.782802 -0.081895 -0.639806 0.532541 -0.554119 -3.03585 0.456728 0.843343 0.283147 -6.01656 0 0 0 1 0.453368 -0.822676 -0.343017 9.25434 0.845127 0.274477 0.458719 -1.56471 -0.283227 -0.497862 0.819705 2.9742 0 0 0 1 0.409685 -0.776507 -0.478744 8.82158 0.172993 0.581417 -0.795001 -4.18458 0.895674 0.24288 0.372528 0.636387 0 0 0 1 0.409685 -0.776507 -0.478744 8.73074 0.172993 0.581417 -0.795001 -1.28433 0.895674 0.24288 0.372528 0.53463 0 0 0 1 0.409685 -0.776507 -0.478744 8.73074 0.172993 0.581417 -0.795001 -1.28433 0.895674 0.24288 0.372528 0.53463 0 0 0 1 0.409685 -0.776507 -0.478744 8.73074 0.172993 0.581417 -0.795001 -1.28433 0.895674 0.24288 0.372528 0.534631 0 0 0 1 0.409685 -0.776507 -0.478744 8.82158 0.172993 0.581417 -0.795001 -4.18458 0.895674 0.24288 0.372528 0.636387 0 0 0 1 0.409685 -0.776507 -0.478744 8.82158 0.172993 0.581417 -0.795001 -4.18458 0.895674 0.24288 0.372528 0.636387 0 0 0 1 0.453368 -0.822676 -0.343017 9.25435 0.845127 0.274477 0.458719 -1.56471 -0.283227 -0.497862 0.819705 2.9742 0 0 0 1 0.453368 -0.822676 -0.343017 9.25435 0.845127 0.274477 0.458719 -1.56471 -0.283227 -0.497862 0.819705 2.9742 0 0 0 1 0.453368 0.822676 0.343017 -9.25434 -0.845127 0.274477 0.458719 -1.56471 0.283227 -0.497862 0.819705 2.9742 0 0 0 1 0.409685 0.776507 0.478744 -8.82158 -0.172993 0.581417 -0.795001 -4.18458 -0.895674 0.24288 0.372528 0.636387 0 0 0 1 0.409685 0.776507 0.478744 -8.82158 -0.172993 0.581417 -0.795001 -4.18458 -0.895674 0.24288 0.372528 0.636387 0 0 0 1 0.409685 0.776507 0.478744 -8.82158 -0.172993 0.581417 -0.795001 -4.18458 -0.895674 0.24288 0.372528 0.636387 0 0 0 1 0.453368 0.822676 0.343017 -9.25435 -0.845127 0.274477 0.458719 -1.56471 0.283227 -0.497862 0.819705 2.9742 0 0 0 1 0.453368 0.822676 0.343017 -9.25435 -0.845127 0.274477 0.458719 -1.56471 0.283227 -0.497862 0.819705 2.9742 0 0 0 1 1 0 0 0 0 0.898794 0.438371 -6.08344 0 -0.438371 0.898794 3.00714 0 0 0 1 1 0 0 0 0 0.898794 0.438371 -6.08344 0 -0.438371 0.898794 3.00714 0 0 0 1</float_array>
          <technique_common>
            <accessor source="#Controller1-bind_poses-array" count="39" stride="16">
              <param name="TRANSFORM" type="float4x4"/>
            </accessor>
          </technique_common>
        </source>
        <source id="Controller1-weights">
          <float_array id="Controller1-weights-array" count="1">1</float_array>
          <technique_common>
            <accessor source="#Controller1-weights-array" count="1" stride="1">
              <param name="WEIGHT" type="float"/>
            </accessor>
          </technique_common>
        </source>
        <joints>
          <input semantic="JOINT" source="#Controller1-joints"/>
          <input semantic="INV_BIND_MATRIX" source="#Controller1-bind_poses"/>
        </joints>
        <vertex_weights count="120">
          <input semantic="JOINT" source="#Controller1-joints" offset="0"/>
          <input semantic="WEIGHT" source="#Controller1-weights" offset="1"/>
          <vcount>1 1 1 1 1 1 1 1 1 1 1 1 1 1 1 1 1 1 1 1 1 1 1 1 1 1 1 1 1 1 1 1 1 1 1 1 1 1 1 1 1 1 1 1 1 1 1 1 1 1 1 1 1 1 1 1 1 1 1 1 1 1 1 1 1 1 1 1 1 1 1 1 1 1 1 1 1 1 1 1 1 1 1 1 1 1 1 1 1 1 1 1 1 1 1 1 1 1 1 1 1 1 1 1 1 1 1 1 1 1 1 1 1 1 1 1 1 1 1 1 </vcount>
          <v>3 0 3 0 3 0 3 0 3 0 3 0 3 0 3 0 3 0 3 0 3 0 3 0 3 0 3 0 3 0 3 0 3 0 3 0 3 0 3 0 3 0 3 0 3 0 3 0 3 0 3 0 3 0 3 0 3 0 3 0 3 0 3 0 3 0 3 0 3 0 3 0 3 0 3 0 3 0 3 0 3 0 3 0 3 0 3 0 3 0 3 0 3 0 3 0 3 0 3 0 3 0 3 0 3 0 3 0 3 0 3 0 3 0 3 0 3 0 3 0 3 0 3 0 3 0 3 0 3 0 3 0 3 0 3 0 3 0 3 0 3 0 3 0 3 0 3 0 3 0 3 0 3 0 3 0 3 0 3 0 3 0 3 0 3 0 3 0 3 0 3 0 3 0 3 0 3 0 3 0 3 0 3 0 28 0 28 0 28 0 28 0 28 0 28 0 28 0 28 0 34 0 34 0 34 0 34 0 34 0 34 0 34 0 34 0 8 0 8 0 8 0 8 0 8 0 8 0 17 0 17 0 17 0 17 0 17 0 17 0</v>
        </vertex_weights>
      </skin>
      <extra>
        <technique profile="FCOLLADA">
          <user_properties>SkinController</user_properties>
        </technique>
      </extra>
    </controller>
    <controller id="Controller2">
      <skin source="#Geometry2">
        <bind_shape_matrix>1 0 0 0 0 1 0 0 0 0 1 0 0 0 0 1</bind_shape_matrix>
        <source id="Controller2-joints">
          <Name_array id="Controller2-joints-array" count="39">_x00 _x01 _x19 node_unnamed_0003 _x02 _x14 _x16 _x18 node_unnamed_0008 _x17 node_unnamed_0010 _x15 node_unnamed_0012 _x03 _x0F _x11 _x13 node_unnamed_0017 _x12 node_unnamed_0019 _x10 node_unnamed_0021 _x04 _x0A _x0C _x0E node_unnamed_0026 _x0D node_unnamed_0028 _x0B node_unnamed_0030 _x05 _x07 _x09 node_unnamed_0034 _x08 node_unnamed_0036 _x06 node_unnamed_0038</Name_array>
          <technique_common>
            <accessor source="#Controller2-joints-array" count="39" stride="1">
              <param name="JOINT" type="Name"/>
            </accessor>
          </technique_common>
        </source>
        <source id="Controller2-bind_poses">
          <float_array id="Controller2-bind_poses-array" count="624">1 0 0 0 0 0.898794 0.438371 -6.08344 0 -0.438371 0.898794 3.00714 0 0 0 1 1 0 0 0 0 0.997564 -0.069756 -9.80883 0 0.069756 0.997564 -2.93553 0 0 0 1 1 0 0 0 0 0.997564 -0.069756 -9.80883 0 0.069756 0.997564 -2.93553 0 0 0 1 1 0 0 0 0 0.997564 -0.069756 -9.80884 0 0.069756 0.997564 -2.93553 0 0 0 1 0.6181 0.064091 0.783482 0.134273 0.639806 0.538056 -0.548766 -3.07249 -0.456729 0.840469 0.291566 -5.99699 0 0 0 1 0.728985 -0.198764 0.655037 2.03121 -0.151959 0.88605 0.437977 -5.66418 -0.66745 -0.418818 0.615713 -0.626895 0 0 0 1 0.853757 0.006527 0.52063 2.00631 -0.012783 0.999883 0.008427 -1.86416 -0.520514 -0.01385 0.853741 -0.940979 0 0 0 1 0.853757 0.006527 0.52063 2.00631 -0.012783 0.999883 0.008427 -1.86416 -0.520514 -0.01385 0.853741 -0.940979 0 0 0 1 0.853757 0.006527 0.52063 2.00631 -0.012783 0.999883 0.008427 -1.86416 -0.520514 -0.01385 0.853741 -0.940978 0 0 0 1 0.728985 -0.198764 0.655037 2.03121 -0.151959 0.88605 0.437977 -5.66418 -0.66745 -0.418818 0.615713 -0.626895 0 0 0 1 0.728985 -0.198764 0.655037 2.03121 -0.15196 0.88605 0.437977 -5.66418 -0.66745 -0.418818 0.615713 -0.626895 0 0 0 1 0.6181 0.064091 0.783482 0.134273 0.639806 0.538056 -0.548766 -3.07249 -0.456729 0.840469 0.291566 -5.99699 0 0 0 1 0.6181 0.064091 0.783482 0.134273 0.639806 0.538056 -0.548766 -3.07249 -0.456729 0.840469 0.291566 -5.99699 0 0 0 1 0.6181 -0.071922 -0.782802 -0.081895 -0.639806 0.532541 -0.554119 -3.03585 0.456728 0.843343 0.283147 -6.01656 0 0 0 1 0.728985 0.192205 -0.656992 -1.98745 0.151959 0.890385 0.429095 -5.69104 0.66745 -0.412639 0.61987 -0.685843 0 0 0 1 0.853758 -0.011732 -0.520538 -1.92041 0.012782 0.999917 -0.001571 -1.85331 0.520514 -0.005312 0.853837 -1.00357 0 0 0 1 0.853758 -0.011732 -0.520538 -1.92041 0.012782 0.999917 -0.001571 -1.85331 0.520514 -0.005312 0.853837 -1.00357 0 0 0 1 0.853758 -0.011732 -0.520538 -1.92041 0.012782 0.999917 -0.001571 -1.85331 0.520514 -0.005312 0.853837 -1.00357 0 0 0 1 0.728985 0.192205 -0.656992 -1.98745 0.151959 0.890385 0.429095 -5.69104 0.66745 -0.412639 0.61987 -0.685843 0 0 0 1 0.728985 0.192205 -0.656992 -1.98745 0.151959 0.890385 0.429095 -5.69104 0.66745 -0.412639 0.61987 -0.685843 0 0 0 1 0.6181 -0.071922 -0.782802 -0.081895 -0.639806 0.532541 -0.554119 -3.03585 0.456728 0.843343 0.283147 -6.01656 0 0 0 1 0.6181 -0.071922 -0.782802 -0.081895 -0.639806 0.532541 -0.554119 -3.03585 0.456728 0.843343 0.283147 -6.01656 0 0 0 1 0.453368 -0.822676 -0.343017 9.25434 0.845127 0.274477 0.458719 -1.56471 -0.283227 -0.497862 0.819705 2.9742 0 0 0 1 0.409685 -0.776507 -0.478744 8.82158 0.172993 0.581417 -0.795001 -4.18458 0.895674 0.24288 0.372528 0.636387 0 0 0 1 0.409685 -0.776507 -0.478744 8.73074 0.172993 0.581417 -0.795001 -1.28433 0.895674 0.24288 0.372528 0.53463 0 0 0 1 0.409685 -0.776507 -0.478744 8.73074 0.172993 0.581417 -0.795001 -1.28433 0.895674 0.24288 0.372528 0.53463 0 0 0 1 0.409685 -0.776507 -0.478744 8.73074 0.172993 0.581417 -0.795001 -1.28433 0.895674 0.24288 0.372528 0.534631 0 0 0 1 0.409685 -0.776507 -0.478744 8.82158 0.172993 0.581417 -0.795001 -4.18458 0.895674 0.24288 0.372528 0.636387 0 0 0 1 0.409685 -0.776507 -0.478744 8.82158 0.172993 0.581417 -0.795001 -4.18458 0.895674 0.24288 0.372528 0.636387 0 0 0 1 0.453368 -0.822676 -0.343017 9.25435 0.845127 0.274477 0.458719 -1.56471 -0.283227 -0.497862 0.819705 2.9742 0 0 0 1 0.453368 -0.822676 -0.343017 9.25435 0.845127 0.274477 0.458719 -1.56471 -0.283227 -0.497862 0.819705 2.9742 0 0 0 1 0.453368 0.822676 0.343017 -9.25434 -0.845127 0.274477 0.458719 -1.56471 0.283227 -0.497862 0.819705 2.9742 0 0 0 1 0.409685 0.776507 0.478744 -8.82158 -0.172993 0.581417 -0.795001 -4.18458 -0.895674 0.24288 0.372528 0.636387 0 0 0 1 0.409685 0.776507 0.478744 -8.82158 -0.172993 0.581417 -0.795001 -4.18458 -0.895674 0.24288 0.372528 0.636387 0 0 0 1 0.409685 0.776507 0.478744 -8.82158 -0.172993 0.581417 -0.795001 -4.18458 -0.895674 0.24288 0.372528 0.636387 0 0 0 1 0.453368 0.822676 0.343017 -9.25435 -0.845127 0.274477 0.458719 -1.56471 0.283227 -0.497862 0.819705 2.9742 0 0 0 1 0.453368 0.822676 0.343017 -9.25435 -0.845127 0.274477 0.458719 -1.56471 0.283227 -0.497862 0.819705 2.9742 0 0 0 1 1 0 0 0 0 0.898794 0.438371 -6.08344 0 -0.438371 0.898794 3.00714 0 0 0 1 1 0 0 0 0 0.898794 0.438371 -6.08344 0 -0.438371 0.898794 3.00714 0 0 0 1</float_array>
          <technique_common>
            <accessor source="#Controller2-bind_poses-array" count="39" stride="16">
              <param name="TRANSFORM" type="float4x4"/>
            </accessor>
          </technique_common>
        </source>
        <source id="Controller2-weights">
          <float_array id="Controller2-weights-array" count="1">1</float_array>
          <technique_common>
            <accessor source="#Controller2-weights-array" count="1" stride="1">
              <param name="WEIGHT" type="float"/>
            </accessor>
          </technique_common>
        </source>
        <joints>
          <input semantic="JOINT" source="#Controller2-joints"/>
          <input semantic="INV_BIND_MATRIX" source="#Controller2-bind_poses"/>
        </joints>
        <vertex_weights count="42">
          <input semantic="JOINT" source="#Controller2-joints" offset="0"/>
          <input semantic="WEIGHT" source="#Controller2-weights" offset="1"/>
          <vcount>1 1 1 1 1 1 1 1 1 1 1 1 1 1 1 1 1 1 1 1 1 1 1 1 1 1 1 1 1 1 1 1 1 1 1 1 1 1 1 1 1 1 </vcount>
          <v>3 0 3 0 3 0 3 0 3 0 3 0 3 0 3 0 3 0 3 0 3 0 3 0 3 0 3 0 3 0 3 0 3 0 3 0 3 0 3 0 3 0 3 0 3 0 3 0 3 0 3 0 3 0 3 0 3 0 3 0 3 0 3 0 3 0 3 0 3 0 3 0 3 0 3 0 3 0 3 0 3 0 3 0</v>
        </vertex_weights>
      </skin>
      <extra>
        <technique profile="FCOLLADA">
          <user_properties>SkinController</user_properties>
        </technique>
      </extra>
    </controller>
  </library_controllers>
  <library_visual_scenes>
    <visual_scene id="VisualSceneNode" name="rdmscene">
      <node id="VisualSceneNode1" name="_x00" sid="_x00" type="JOINT">
        <matrix>1 0 0 0 0 0.898794 -0.438371 6.786 0 0.438371 0.898794 -0.035998 0 0 0 1</matrix>
        <node id="VisualSceneNode2" name="_x01" sid="_x01" type="JOINT">
          <matrix>1 0 0 0 0 0.866025 0.5 3.87903 0 -0.5 0.866025 0.644967 0 0 0 1</matrix>
          <node id="VisualSceneNode3" name="_x19" sid="_x19" type="JOINT">
            <matrix>1 0 0 0 0 1 0 0.000001 0 0 1 -0.000000 0 0 0 1</matrix>
            <node id="VisualSceneNode4" name="node_unnamed_0003" sid="node_unnamed_0003" type="JOINT">
              <matrix>1 0 0 0 0 1 0 0.000001 0 0 1 0 0 0 0 1</matrix>
            </node>
          </node>
        </node>
        <node id="VisualSceneNode5" name="_x02" sid="_x02" type="JOINT">
          <matrix>0.6181 0.639806 -0.456729 -0.856197 0.401062 0.243038 0.883222 -0.093875 0.676093 -0.729096 -0.10638 0.038261 0 0 0 1</matrix>
          <node id="VisualSceneNode6" name="_x14" sid="_x14" type="JOINT">
            <matrix>0.951057 0.30601 0.043006 -0.037271 0 0.139173 -0.990268 -2.90498 -0.309017 0.941801 0.132361 0.048191 0 0 0 1</matrix>
            <node id="VisualSceneNode7" name="_x16" sid="_x16" type="JOINT">
              <matrix>0.962111 -0.202539 0.182538 -0.104881 0.104071 0.89158 0.440743 -3.7962 -0.252015 -0.405047 0.878877 -0.04934 0 0 0 1</matrix>
              <node id="VisualSceneNode8" name="_x18" sid="_x18" type="JOINT">
                <matrix>1 0 0 0 0 1 0 0 0 0 1 0 0 0 0 1</matrix>
                <node id="VisualSceneNode9" name="node_unnamed_0008" sid="node_unnamed_0008" type="JOINT">
                  <matrix>1 0 0 0 0 1 0 0 0 0 1 0 0 0 0 1</matrix>
                </node>
              </node>
            </node>
            <node id="VisualSceneNode10" name="_x17" sid="_x17" type="JOINT">
              <matrix>1 0 0 -0.000000 0 1 0 0.000000 0 0 1 0.000000 0 0 0 1</matrix>
              <node id="VisualSceneNode11" name="node_unnamed_0010" sid="node_unnamed_0010" type="JOINT">
                <matrix>1 0 0 0 0 1 0 0.000000 0 0 1 0.000000 0 0 0 1</matrix>
              </node>
            </node>
          </node>
          <node id="VisualSceneNode12" name="_x15" sid="_x15" type="JOINT">
            <matrix>1 0 0 0 0 1 0 0 0 0 1 -0.000000 0 0 0 1</matrix>
            <node id="VisualSceneNode13" name="node_unnamed_0012" sid="node_unnamed_0012" type="JOINT">
              <matrix>1 0 0 0 0 1 0 -0.000000 0 0 1 -0.000000 0 0 0 1</matrix>
            </node>
          </node>
        </node>
        <node id="VisualSceneNode14" name="_x03" sid="_x03" type="JOINT">
          <matrix>0.6181 -0.639806 0.456728 0.856197 -0.407802 0.235735 0.882115 -0.093875 -0.672049 -0.73149 -0.115206 0.038261 0 0 0 1</matrix>
          <node id="VisualSceneNode15" name="_x0F" sid="_x0F" type="JOINT">
            <matrix>0.951057 -0.30601 -0.043006 0.037272 0 0.139173 -0.990268 -2.92298 0.309017 0.941801 0.132361 0.048193 0 0 0 1</matrix>
            <node id="VisualSceneNode16" name="_x11" sid="_x11" type="JOINT">
              <matrix>0.962111 0.202539 -0.182538 0.05238 -0.104071 0.89158 0.440743 -3.7962 0.252015 -0.405047 0.878877 -0.070534 0 0 0 1</matrix>
              <node id="VisualSceneNode17" name="_x13" sid="_x13" type="JOINT">
                <matrix>1 0 0 0 0 1 0 0.000000 0 0 1 0 0 0 0 1</matrix>
                <node id="VisualSceneNode18" name="node_unnamed_0017" sid="node_unnamed_0017" type="JOINT">
                  <matrix>1 0 0 0 0 1 0 0.000000 0 0 1 0 0 0 0 1</matrix>
                </node>
              </node>
            </node>
            <node id="VisualSceneNode19" name="_x12" sid="_x12" type="JOINT">
              <matrix>1 0 0 0 0 1 0 0 0 0 1 0 0 0 0 1</matrix>
              <node id="VisualSceneNode20" name="node_unnamed_0019" sid="node_unnamed_0019" type="JOINT">
                <matrix>1 0 0 -0.000000 0 1 0 -0.000000 0 0 1 -0.000000 0 0 0 1</matrix>
              </node>
            </node>
          </node>
          <node id="VisualSceneNode21" name="_x10" sid="_x10" type="JOINT">
            <matrix>1 0 0 0 0 1 0 0 0 0 1 0.000000 0 0 0 1</matrix>
            <node id="VisualSceneNode22" name="node_unnamed_0021" sid="node_unnamed_0021" type="JOINT">
              <matrix>1 0 0 0 0 1 0 0.000000 0 0 1 0.000000 0 0 0 1</matrix>
            </node>
          </node>
        </node>
        <node id="VisualSceneNode23" name="_x04" sid="_x04" type="JOINT">
          <matrix>0.453368 0.845127 -0.283227 -2.03088 -0.889785 0.447787 -0.088139 3.11375 0.052335 0.291971 0.954994 0.139309 0 0 0 1</matrix>
          <node id="VisualSceneNode24" name="_x0A" sid="_x0A" type="JOINT">
            <matrix>0.988769 -0.127189 0.078474 -0.050335 -0.086506 -0.058895 0.994509 -1.68093 -0.121869 -0.990128 -0.069236 -0.049922 0 0 0 1</matrix>
            <node id="VisualSceneNode25" name="_x0C" sid="_x0C" type="JOINT">
              <matrix>1 0 0 0.090835 0 1 0 -2.90024 0 0 1 0.101757 0 0 0 1</matrix>
              <node id="VisualSceneNode26" name="_x0E" sid="_x0E" type="JOINT">
                <matrix>1 0 0 -0.000001 0 1 0 0.000000 0 0 1 0 0 0 0 1</matrix>
                <node id="VisualSceneNode27" name="node_unnamed_0026" sid="node_unnamed_0026" type="JOINT">
                  <matrix>1 0 0 0 0 1 0 0 0 0 1 -0.000000 0 0 0 1</matrix>
                </node>
              </node>
            </node>
            <node id="VisualSceneNode28" name="_x0D" sid="_x0D" type="JOINT">
              <matrix>1 0 0 -0.000000 0 1 0 0.000000 0 0 1 0 0 0 0 1</matrix>
              <node id="VisualSceneNode29" name="node_unnamed_0028" sid="node_unnamed_0028" type="JOINT">
                <matrix>1 0 0 0.000000 0 1 0 0.000000 0 0 1 -0.000000 0 0 0 1</matrix>
              </node>
            </node>
          </node>
          <node id="VisualSceneNode30" name="_x0B" sid="_x0B" type="JOINT">
            <matrix>1 0 0 -0.000000 0 1 0 0.000000 0 0 1 -0.000000 0 0 0 1</matrix>
            <node id="VisualSceneNode31" name="node_unnamed_0030" sid="node_unnamed_0030" type="JOINT">
              <matrix>1 0 0 0.000000 0 1 0 0.000000 0 0 1 -0.000000 0 0 0 1</matrix>
            </node>
          </node>
        </node>
        <node id="VisualSceneNode32" name="_x05" sid="_x05" type="JOINT">
          <matrix>0.453368 -0.845127 0.283227 2.03088 0.889785 0.447787 -0.088139 3.11375 -0.052335 0.291971 0.954994 0.139309 0 0 0 1</matrix>
          <node id="VisualSceneNode33" name="_x07" sid="_x07" type="JOINT">
            <matrix>0.988769 0.127189 -0.078474 0.050335 0.086506 -0.058895 0.994509 -1.68093 0.121869 -0.990128 -0.069236 -0.049922 0 0 0 1</matrix>
            <node id="VisualSceneNode34" name="_x09" sid="_x09" type="JOINT">
              <matrix>1 0 0 0.000000 0 1 0 0.000000 0 0 1 0 0 0 0 1</matrix>
              <node id="VisualSceneNode35" name="node_unnamed_0034" sid="node_unnamed_0034" type="JOINT">
                <matrix>1 0 0 -0.000000 0 1 0 0.000000 0 0 1 -0.000000 0 0 0 1</matrix>
              </node>
            </node>
          </node>
          <node id="VisualSceneNode36" name="_x08" sid="_x08" type="JOINT">
            <matrix>1 0 0 0.000000 0 1 0 0.000000 0 0 1 -0.000000 0 0 0 1</matrix>
            <node id="VisualSceneNode37" name="node_unnamed_0036" sid="node_unnamed_0036" type="JOINT">
              <matrix>1 0 0 -0.000000 0 1 0 0.000000 0 0 1 -0.000000 0 0 0 1</matrix>
            </node>
          </node>
        </node>
        <node id="VisualSceneNode38" name="_x06" sid="_x06" type="JOINT">
          <matrix>1 0 0 0 0 1 0 -0.000000 0 0 1 0 0 0 0 1</matrix>
          <node id="VisualSceneNode39" name="node_unnamed_0038" sid="node_unnamed_0038" type="JOINT">
            <matrix>1 0 0 0 0 1 0 -0.000000 0 0 1 0 0 0 0 1</matrix>
          </node>
        </node>
      </node>
      <node id="VisualSceneNode40" name="unnamed_mtl_0002" type="NODE">
        <matrix>1 0 0 0 0 1 0 0 0 0 1 0 0 0 0 1</matrix>
        <instance_controller url="#Controller">
          <skeleton>#VisualSceneNode1</skeleton>
          <bind_material>
            <technique_common>
              <instance_material symbol="VisualMaterial0" target="#VisualMaterial"/>
            </technique_common>
          </bind_material>
        </instance_controller>
      </node>
      <node id="VisualSceneNode41" name="unnamed_mtl_0003" type="NODE">
        <matrix>1 0 0 0 0 1 0 0 0 0 1 0 0 0 0 1</matrix>
        <instance_controller url="#Controller1">
          <skeleton>#VisualSceneNode1</skeleton>
          <bind_material>
            <technique_common>
              <instance_material symbol="VisualMaterial10" target="#VisualMaterial1"/>
            </technique_common>
          </bind_material>
        </instance_controller>
      </node>
      <node id="VisualSceneNode42" name="unnamed_mtl_0004" type="NODE">
        <matrix>1 0 0 0 0 1 0 0 0 0 1 0 0 0 0 1</matrix>
        <instance_controller url="#Controller2">
          <skeleton>#VisualSceneNode1</skeleton>
          <bind_material>
            <technique_common>
              <instance_material symbol="VisualMaterial20" target="#VisualMaterial2"/>
            </technique_common>
          </bind_material>
        </instance_controller>
      </node>
    </visual_scene>
  </library_visual_scenes>
  <scene>
    <instance_visual_scene url="#VisualSceneNode"/>
  </scene>
</COLLADA>
